<?xml version="1.0" encoding="UTF-8" standalone="no"?>
<!-- Created with Inkscape (http://www.inkscape.org/) -->

<svg
   width="15mm"
   height="15mm"
   viewBox="0 0 15 15"
   version="1.1"
   id="svg1"
   xml:space="preserve"
   xmlns:inkscape="http://www.inkscape.org/namespaces/inkscape"
   xmlns:sodipodi="http://sodipodi.sourceforge.net/DTD/sodipodi-0.dtd"
   xmlns="http://www.w3.org/2000/svg"
   xmlns:svg="http://www.w3.org/2000/svg"><sodipodi:namedview
     id="namedview1"
     pagecolor="#ffffff"
     bordercolor="#000000"
     borderopacity="0.25"
     inkscape:showpageshadow="2"
     inkscape:pageopacity="0.0"
     inkscape:pagecheckerboard="0"
     inkscape:deskcolor="#d1d1d1"
     inkscape:document-units="mm"
     inkscape:lockguides="false"
     inkscape:zoom="2.0485264"
     inkscape:cx="633.62619"
     inkscape:cy="979.97271"
     inkscape:window-width="1920"
     inkscape:window-height="1009"
     inkscape:window-x="1912"
     inkscape:window-y="-8"
     inkscape:window-maximized="1"
     inkscape:current-layer="layer1" /><defs
     id="defs1" /><g
     inkscape:label="Layer 1"
     inkscape:groupmode="layer"
     id="layer1"
     transform="translate(-180.2301,-267.96536)"><g
       id="g254"><rect
         style="fill:none;fill-opacity:1;fill-rule:evenodd;stroke:none;stroke-width:5.30753;stroke-linejoin:round;stroke-opacity:1"
         id="rect228-7-2-0-0-84-0-2-3-7-7-9"
         width="15"
         height="15"
         x="180.2301"
         y="267.96536" /><g
         id="g97"
         transform="translate(74.209644,81.00214)"><path
           fill="#fcea2b"
           d="m 109.87171,199.44336 c -0.0794,-0.3175 -0.10583,-0.635 -0.0794,-0.9525 0.0529,-0.29104 0.60854,-1.71979 0.71437,-1.93146 0.10583,-0.21166 0.37042,-1.19062 0.635,-1.27 0.26458,-0.0794 0.3175,0.0265 0.29104,0.18521 -0.0265,0.15875 -0.15875,2.03729 -0.15875,2.03729 l 2.48709,-0.74083 c 0,0 2.03729,-0.50271 2.0902,-0.26458 0.55563,0.52916 -1.42875,1.19062 -1.98437,1.16416 0,0 0.29104,0.15875 0.23812,0.34396 -0.0529,0.18521 -0.21166,0.3175 -0.26458,0.3175 -0.0529,0 0.13229,0.13229 0.15875,0.37042 0.23813,0.47625 -0.74083,0.60854 -0.74083,0.60854 0.34396,-0.0529 0.87312,0.55562 0.0265,0.71437 -0.26459,0.0794 -1.27,0.37042 -1.27,0.37042 0,0 -0.87313,0.3175 -1.37584,-0.0265 -0.3175,-0.21166 -0.60854,-0.52916 -0.76729,-0.92604 z"
           id="path1-95"
           style="stroke-width:0.264583" /><path
           fill="none"
           stroke="#000000"
           stroke-linecap="round"
           stroke-linejoin="round"
           stroke-width="0.529167"
           d="m 112.46463,194.73378 c 0.635,-0.18521 3.14854,0.13229 3.73062,0.55562"
           id="path2-59" /><path
           fill="none"
           stroke="#000000"
           stroke-linecap="round"
           stroke-linejoin="round"
           stroke-width="0.529167"
           d="m 110.03046,197.96169 c -0.26458,0.42334 -0.3175,0.97896 -0.13229,1.45521 0.29104,0.87313 1.05833,1.37584 1.905,1.11125 l 1.29646,-0.37041 0.26458,-0.0794 c 0.21167,-0.0529 0.34396,-0.29104 0.29104,-0.47625 v 0 c -0.0529,-0.13229 -0.15875,-0.23812 -0.3175,-0.26458 l 0.3175,-0.0794 c 0.21167,-0.0529 0.34396,-0.29104 0.29104,-0.47625 -0.0529,-0.13229 -0.15875,-0.26458 -0.3175,-0.29104 l 0.3175,-0.10583 c 0.21167,-0.0529 0.34396,-0.29104 0.29105,-0.47625 -0.0265,-0.13229 -0.1323,-0.23813 -0.26459,-0.26459 l 1.69334,-0.5027 c 0.21166,-0.0529 0.34395,-0.29105 0.29104,-0.47625 -0.0529,-0.18521 -0.29104,-0.34396 -0.47625,-0.29105 v 0 l -2.69875,0.79375 -1.34938,0.39688 0.15875,-2.06375 c 0.0265,-0.23813 -0.39687,-0.3175 -0.55562,0.0529 z"
           id="path8-1" /></g></g></g></svg>
