<?xml version="1.0" encoding="UTF-8" standalone="no"?>
<!-- Created with Inkscape (http://www.inkscape.org/) -->

<svg
   width="10mm"
   height="10mm"
   viewBox="0 0 10 10"
   version="1.1"
   id="svg1"
   xml:space="preserve"
   xmlns:inkscape="http://www.inkscape.org/namespaces/inkscape"
   xmlns:sodipodi="http://sodipodi.sourceforge.net/DTD/sodipodi-0.dtd"
   xmlns="http://www.w3.org/2000/svg"
   xmlns:svg="http://www.w3.org/2000/svg"><sodipodi:namedview
     id="namedview1"
     pagecolor="#ffffff"
     bordercolor="#000000"
     borderopacity="0.25"
     inkscape:showpageshadow="2"
     inkscape:pageopacity="0.0"
     inkscape:pagecheckerboard="0"
     inkscape:deskcolor="#d1d1d1"
     inkscape:document-units="mm"
     inkscape:lockguides="false"
     inkscape:zoom="2.0485264"
     inkscape:cx="633.62619"
     inkscape:cy="979.97271"
     inkscape:window-width="1920"
     inkscape:window-height="1009"
     inkscape:window-x="1912"
     inkscape:window-y="-8"
     inkscape:window-maximized="1"
     inkscape:current-layer="layer1" /><defs
     id="defs1" /><g
     inkscape:label="Layer 1"
     inkscape:groupmode="layer"
     id="layer1"
     transform="translate(-119.65173,-228.84578)"><g
       id="g234"
       transform="translate(-16.403051,-0.25831581)"><rect
         style="fill:none;fill-opacity:1;fill-rule:evenodd;stroke:none;stroke-width:3.53835;stroke-linejoin:round;stroke-opacity:1"
         id="rect228-7-2-0-0-84-0-2-3-7-7-9-2-9"
         width="10"
         height="10"
         x="136.05478"
         y="229.1041" /><g
         id="g115"
         transform="translate(26.984007,59.770043)"><g
           id="g114"><path
             stroke-width="0.225319"
             d="m 113.13521,175.41098 h -0.957 c -0.49106,-0.001 -0.889,-0.40904 -0.89032,-0.91228 10e-4,-0.50324 0.39926,-0.9107 0.89032,-0.91228 h 3.78354 c 0.49107,0.001 0.889,0.40904 0.89033,0.91228 -0.001,0.50324 -0.39926,0.9107 -0.89033,0.91228 h -0.47228"
             id="path1-06" /><path
             d="m 115.35771,175.41098 h -0.13388"
             id="path2-13"
             style="stroke-width:0.264583" /><path
             d="m 115.75723,175.41098 h -0.3982"
             id="path3-85"
             style="stroke-width:0.264583" /><path
             fill="#ffa7c0"
             d="m 115.56673,174.30502 c 0,1.60735 -0.66992,2.91042 -1.49648,2.91042 -0.82656,0 -1.49649,-1.30307 -1.49649,-2.91042 1.06204,-0.44979 2.05344,-0.40666 2.99244,0 z"
             id="path5-33"
             style="stroke-width:0.264583" /><path
             fill="none"
             stroke="#000000"
             stroke-linecap="round"
             stroke-linejoin="round"
             stroke-miterlimit="10"
             stroke-width="0.529167"
             d="m 115.56673,174.30502 c 0,1.60735 -0.66992,2.91042 -1.49648,2.91042 -0.82656,0 -1.49649,-1.30307 -1.49649,-2.91042 1.36023,-0.52361 2.16906,-0.25066 2.99244,0 z"
             id="path10-6" /></g><path
           fill="none"
           stroke="#000000"
           stroke-miterlimit="2"
           stroke-width="0.459581"
           d="m 112.89444,175.42421 h -0.72469 c -0.49345,-0.002 -0.89297,-0.4236 -0.89456,-0.94482 0.001,-0.52123 0.40111,-0.94351 0.89456,-0.94483 h 3.80206 c 0.49345,0.002 0.89297,0.4236 0.89455,0.94483 -0.001,0.52122 -0.4011,0.9435 -0.89455,0.94482 h -0.70088"
           id="path12-2" /></g></g></g></svg>
