<?xml version="1.0" encoding="UTF-8" standalone="no"?>
<!-- Created with Inkscape (http://www.inkscape.org/) -->

<svg
   width="10mm"
   height="10mm"
   viewBox="0 0 10 10"
   version="1.1"
   id="svg1"
   xml:space="preserve"
   xmlns:inkscape="http://www.inkscape.org/namespaces/inkscape"
   xmlns:sodipodi="http://sodipodi.sourceforge.net/DTD/sodipodi-0.dtd"
   xmlns="http://www.w3.org/2000/svg"
   xmlns:svg="http://www.w3.org/2000/svg"><sodipodi:namedview
     id="namedview1"
     pagecolor="#ffffff"
     bordercolor="#000000"
     borderopacity="0.25"
     inkscape:showpageshadow="2"
     inkscape:pageopacity="0.0"
     inkscape:pagecheckerboard="0"
     inkscape:deskcolor="#d1d1d1"
     inkscape:document-units="mm"
     inkscape:lockguides="false"
     inkscape:zoom="2.0485264"
     inkscape:cx="633.62619"
     inkscape:cy="979.97271"
     inkscape:window-width="1920"
     inkscape:window-height="1009"
     inkscape:window-x="1912"
     inkscape:window-y="-8"
     inkscape:window-maximized="1"
     inkscape:current-layer="layer1" /><defs
     id="defs1" /><g
     inkscape:label="Layer 1"
     inkscape:groupmode="layer"
     id="layer1"
     transform="translate(-172.48825,-254.13696)"><g
       id="g239"><rect
         style="fill:none;fill-opacity:1;fill-rule:evenodd;stroke:none;stroke-width:3.53835;stroke-linejoin:round;stroke-opacity:1"
         id="rect228-7-2-0-0-84-0-2"
         width="10"
         height="10"
         x="172.48825"
         y="254.13696" /><g
         id="g84"
         transform="translate(59.857271,64.456845)"><path
           fill="#ffffff"
           d="m 119.13071,195.41422 c 0.53393,-0.28819 0.95983,-0.7279 1.18981,-1.26328 -0.52512,0.26069 -1.62944,0.42151 -2.79784,0.40815 -1.07278,-0.0123 -2.04036,-0.16955 -2.51807,-0.40815 h -0.0631 c 0.24844,0.57274 0.71908,1.0315 1.3009,1.31575"
           id="path2-30"
           style="stroke-width:0.264583" /><path
           fill="#ea5a47"
           d="m 119.10663,194.41555 c 0,1.60737 -0.67003,2.91042 -1.49653,2.91042 -0.82653,0 -1.49656,-1.30305 -1.49656,-2.91042"
           id="path3-79"
           style="stroke-width:0.264583" /><path
           fill="none"
           stroke="#000000"
           stroke-linecap="round"
           stroke-linejoin="round"
           stroke-miterlimit="10"
           stroke-width="0.529167"
           d="m 116.24239,195.46669 c -0.58182,-0.28422 -1.05246,-0.74298 -1.30091,-1.31575 m 5.37901,3e-5 c -0.22998,0.53535 -0.65588,0.97509 -1.18981,1.26328 m -4.12609,-1.26328 c 0.4777,0.2386 1.44528,0.39587 2.51806,0.40814 1.16843,0.0134 2.27275,-0.14742 2.79784,-0.40814"
           id="path4-56" /><path
           fill="none"
           stroke="#000000"
           stroke-miterlimit="10"
           stroke-width="0.529167"
           d="m 119.12846,194.41555 c 0,1.60737 -0.67003,2.91042 -1.49653,2.91042 -0.82651,0 -1.49657,-1.30305 -1.49657,-2.91042"
           id="path5-08" /></g></g></g></svg>
