<?xml version="1.0" encoding="UTF-8" standalone="no"?>
<!-- Created with Inkscape (http://www.inkscape.org/) -->

<svg
   width="10mm"
   height="10mm"
   viewBox="0 0 10 10"
   version="1.1"
   id="svg1"
   xml:space="preserve"
   xmlns:inkscape="http://www.inkscape.org/namespaces/inkscape"
   xmlns:sodipodi="http://sodipodi.sourceforge.net/DTD/sodipodi-0.dtd"
   xmlns="http://www.w3.org/2000/svg"
   xmlns:svg="http://www.w3.org/2000/svg"><sodipodi:namedview
     id="namedview1"
     pagecolor="#ffffff"
     bordercolor="#000000"
     borderopacity="0.25"
     inkscape:showpageshadow="2"
     inkscape:pageopacity="0.0"
     inkscape:pagecheckerboard="0"
     inkscape:deskcolor="#d1d1d1"
     inkscape:document-units="mm"
     inkscape:lockguides="false"
     inkscape:zoom="2.0485264"
     inkscape:cx="633.62619"
     inkscape:cy="979.97271"
     inkscape:window-width="1920"
     inkscape:window-height="1009"
     inkscape:window-x="1912"
     inkscape:window-y="-8"
     inkscape:window-maximized="1"
     inkscape:current-layer="layer1" /><defs
     id="defs1" /><g
     inkscape:label="Layer 1"
     inkscape:groupmode="layer"
     id="layer1"
     transform="translate(-77.877586,-235.83858)"><g
       id="g229"><rect
         style="fill:none;fill-opacity:1;fill-rule:evenodd;stroke:none;stroke-width:3.53835;stroke-linejoin:round;stroke-opacity:1"
         id="rect228-7-2-0-0-84-0-2-3-7-7-9-2-13"
         width="10"
         height="10"
         x="77.877586"
         y="235.83858" /><g
         id="g88"
         transform="translate(-35.356153,42.64438)"><path
           fill="#ffffff"
           d="m 120.35932,197.45992 c -0.0897,0.0772 -1.31154,1.94283 -2.62202,1.60443 -1.18083,-0.3048 -1.45256,-2.35135 -1.51765,-2.49052 1.3798,0.29527 2.7596,0.59081 4.14073,0.88609 z"
           id="path4-51"
           style="stroke-width:0.264583" /><path
           fill="#ea5a47"
           d="m 120.05505,197.48373 c -0.34211,1.57057 -1.22185,2.71198 -1.9648,2.55058 -0.74295,-0.16139 -1.06812,-1.56633 -0.72601,-3.13796 z"
           id="path5-8"
           style="stroke-width:0.264583" /><path
           fill="none"
           stroke="#000000"
           stroke-linecap="round"
           stroke-linejoin="round"
           stroke-miterlimit="10"
           stroke-width="0.529167"
           d="m 119.72432,198.27748 c 0.003,-0.003 0.003,-0.005 0.003,-0.005 0.37041,-0.42863 0.53446,-0.89165 0.57679,-0.92922 l -4.14073,-0.88609 c 0.0602,0.12488 -0.13824,1.76795 1.08691,2.34474"
           id="path12-4" /><path
           fill="none"
           stroke="#000000"
           stroke-linecap="round"
           stroke-linejoin="round"
           stroke-miterlimit="10"
           stroke-width="0.529167"
           d="m 119.99949,197.36467 c -0.34211,1.57056 -1.22185,2.71198 -1.9648,2.55058 -0.74295,-0.1614 -1.06812,-1.56633 -0.72601,-3.13796"
           id="path13-9" /></g></g></g></svg>
