<?xml version="1.0" encoding="UTF-8" standalone="no"?>
<!-- Created with Inkscape (http://www.inkscape.org/) -->

<svg
   width="10mm"
   height="10mm"
   viewBox="0 0 10 10"
   version="1.1"
   id="svg1"
   xml:space="preserve"
   xmlns:inkscape="http://www.inkscape.org/namespaces/inkscape"
   xmlns:sodipodi="http://sodipodi.sourceforge.net/DTD/sodipodi-0.dtd"
   xmlns="http://www.w3.org/2000/svg"
   xmlns:svg="http://www.w3.org/2000/svg"><sodipodi:namedview
     id="namedview1"
     pagecolor="#ffffff"
     bordercolor="#000000"
     borderopacity="0.25"
     inkscape:showpageshadow="2"
     inkscape:pageopacity="0.0"
     inkscape:pagecheckerboard="0"
     inkscape:deskcolor="#d1d1d1"
     inkscape:document-units="mm"
     inkscape:lockguides="false"
     inkscape:zoom="2.0485264"
     inkscape:cx="633.62619"
     inkscape:cy="979.97271"
     inkscape:window-width="1920"
     inkscape:window-height="1009"
     inkscape:window-x="1912"
     inkscape:window-y="-8"
     inkscape:window-maximized="1"
     inkscape:current-layer="layer1" /><defs
     id="defs1" /><g
     inkscape:label="Layer 1"
     inkscape:groupmode="layer"
     id="layer1"
     transform="translate(-88.615433,-235.91637)"><g
       id="g230"><rect
         style="fill:none;fill-opacity:1;fill-rule:evenodd;stroke:none;stroke-width:3.53835;stroke-linejoin:round;stroke-opacity:1"
         id="rect228-7-2-0-0-84-0-2-3-7-7-9-6"
         width="10"
         height="10"
         x="88.615433"
         y="235.91637" /><g
         id="g59"
         transform="translate(-29.495269,49.097824)"><path
           fill="#ffffff"
           d="m 126.97229,190.26808 c 0.003,0.40738 -0.0751,0.81127 -0.23018,1.18798 -3.30465,0.80169 -6.72836,0.09 -7.2734,-0.0344 -0.14785,-0.3665 -0.22243,-0.7584 -0.2196,-1.15358 h 0.0291 c 0,0 3.91583,0.94985 7.64381,0.0185 z"
           id="path1-725"
           style="stroke-width:0.264583" /><path
           fill="#ea5a47"
           d="m 126.74213,191.45606 c -0.4736,1.12977 -1.6801,1.91294 -3.62214,1.91294 -1.96057,0 -3.18294,-0.80169 -3.65125,-1.94734 0.54504,0.12436 3.96872,0.83609 7.27339,0.0344 z"
           id="path2-63"
           style="stroke-width:0.264583" /><path
           fill="none"
           stroke="#000000"
           stroke-linecap="round"
           stroke-linejoin="round"
           stroke-width="0.529167"
           d="m 126.97229,190.26808 c 0.003,0.40738 -0.0751,0.81127 -0.23018,1.18798 -3.30465,0.80169 -6.72836,0.09 -7.2734,-0.0344 -0.14785,-0.3665 -0.22243,-0.7584 -0.2196,-1.15358 h 0.0291 c 0,0 3.91583,0.94985 7.64381,0.0185 z"
           id="path3-95" /><path
           fill="none"
           stroke="#000000"
           stroke-linecap="round"
           stroke-linejoin="round"
           stroke-width="0.529167"
           d="m 126.74213,191.45606 c -0.4736,1.12977 -1.6801,1.91294 -3.62214,1.91294 -1.96057,0 -3.18294,-0.80169 -3.65125,-1.94734 0.54504,0.12436 3.96872,0.83609 7.27339,0.0344 z"
           id="path4-320" /></g></g></g></svg>
