<?xml version="1.0" encoding="UTF-8" standalone="no"?>
<!-- Created with Inkscape (http://www.inkscape.org/) -->

<svg
   width="10.66095mm"
   height="10mm"
   viewBox="0 0 10.66095 10"
   version="1.1"
   id="svg1"
   xml:space="preserve"
   xmlns:inkscape="http://www.inkscape.org/namespaces/inkscape"
   xmlns:sodipodi="http://sodipodi.sourceforge.net/DTD/sodipodi-0.dtd"
   xmlns="http://www.w3.org/2000/svg"
   xmlns:svg="http://www.w3.org/2000/svg"><sodipodi:namedview
     id="namedview1"
     pagecolor="#ffffff"
     bordercolor="#000000"
     borderopacity="0.25"
     inkscape:showpageshadow="2"
     inkscape:pageopacity="0.0"
     inkscape:pagecheckerboard="0"
     inkscape:deskcolor="#d1d1d1"
     inkscape:document-units="mm"
     inkscape:lockguides="false"
     inkscape:zoom="2.0485264"
     inkscape:cx="633.62619"
     inkscape:cy="979.97271"
     inkscape:window-width="1920"
     inkscape:window-height="1009"
     inkscape:window-x="1912"
     inkscape:window-y="-8"
     inkscape:window-maximized="1"
     inkscape:current-layer="layer1" /><defs
     id="defs1" /><g
     inkscape:label="Layer 1"
     inkscape:groupmode="layer"
     id="layer1"
     transform="translate(-162.94014,-285.55896)"><g
       id="g242"
       transform="translate(50.264194,37.230924)"><rect
         style="fill:none;fill-opacity:1;fill-rule:evenodd;stroke:none;stroke-width:3.53835;stroke-linejoin:round;stroke-opacity:1"
         id="rect228-7-2-0-0-84-0-2-3-7-7"
         width="10"
         height="10"
         x="112.67594"
         y="248.32803" /><g
         id="g83"
         transform="translate(14.326298,61.117716)"><path
           fill="#ea5a47"
           d="m 107.05627,191.01712 c 0,0 1.68974,1.11392 1.68974,2.01721 0,0.65275 -0.41678,1.19345 -1.13022,1.19345 -0.98462,0 -2.03317,-1.65227 -2.03317,-1.65227"
           id="path1-91"
           style="stroke-width:0.264583" /><path
           fill="none"
           stroke="#000000"
           stroke-miterlimit="10"
           stroke-width="0.529167"
           d="m 107.05627,191.01712 c 0,0 1.68974,1.11392 1.68974,2.01721 0,0.65275 -0.41678,1.19345 -1.13022,1.19345 -0.98462,0 -2.03317,-1.65227 -2.03317,-1.65227"
           id="path5-80" /><path
           fill="none"
           stroke="#000000"
           stroke-linecap="round"
           stroke-linejoin="round"
           stroke-miterlimit="10"
           stroke-width="0.529167"
           d="m 99.011615,190.19334 c 0.590762,1.74667 2.243215,3.0041 4.189495,3.0041 1.9463,0 3.59897,-1.25764 4.18965,-3.00458"
           id="path6-33" /></g></g></g></svg>
