<?xml version="1.0" encoding="UTF-8" standalone="no"?>
<!-- Created with Inkscape (http://www.inkscape.org/) -->

<svg
   width="9.6775789mm"
   height="7.8215919mm"
   viewBox="0 0 9.6775789 7.8215919"
   version="1.1"
   id="svg1"
   xml:space="preserve"
   xmlns:inkscape="http://www.inkscape.org/namespaces/inkscape"
   xmlns:sodipodi="http://sodipodi.sourceforge.net/DTD/sodipodi-0.dtd"
   xmlns="http://www.w3.org/2000/svg"
   xmlns:svg="http://www.w3.org/2000/svg"><sodipodi:namedview
     id="namedview1"
     pagecolor="#ffffff"
     bordercolor="#000000"
     borderopacity="0.25"
     inkscape:showpageshadow="2"
     inkscape:pageopacity="0.0"
     inkscape:pagecheckerboard="0"
     inkscape:deskcolor="#d1d1d1"
     inkscape:document-units="mm" /><defs
     id="defs1" /><g
     inkscape:label="Layer 1"
     inkscape:groupmode="layer"
     id="layer1"
     transform="translate(-162.88667,-18.396361)"><g
       id="g193"
       transform="translate(112.62567,17.307156)"><rect
         style="fill:none;fill-opacity:1;fill-rule:evenodd;stroke:none;stroke-width:2.17841;stroke-linejoin:round;stroke-opacity:1"
         id="rect174-3-2-4-7-9-8-0-3-4-8-1-7-8-2-9-0"
         width="7.821588"
         height="7.8215919"
         x="51.089207"
         y="1.089205" /><g
         id="g126"
         transform="translate(-42.418199,-185.95092)"><path
           fill="#3f3f3f"
           d="m 100.03744,192.36176 c 1.04849,0 1.89924,-0.75719 1.89924,-1.6904 0,-0.46689 0.11834,-0.93374 -0.2254,-1.23963 -0.34375,-0.30588 -1.14959,-0.45077 -1.67386,-0.45077 -0.623546,0 -1.360702,0.0379 -1.706935,0.45077 -0.236353,0.28184 -0.1923,0.8608 -0.1923,1.23963 2.7e-5,0.93321 0.850054,1.6904 1.899255,1.6904 z"
           id="path1-7"
           style="stroke-width:0.264583" /><path
           fill="#3f3f3f"
           d="m 94.853569,192.36176 c 1.04849,0 1.899232,-0.75719 1.899232,-1.6904 0,-0.46689 0.118348,-0.93374 -0.225399,-1.23963 -0.343747,-0.30588 -1.149588,-0.45077 -1.67386,-0.45077 -0.623543,0 -1.360699,0.0379 -1.706933,0.45077 -0.236352,0.28184 -0.192299,0.8608 -0.192299,1.23963 2.7e-5,0.93321 0.850053,1.6904 1.899259,1.6904 z"
           id="path2-95"
           style="stroke-width:0.264583" /><path
           fill="none"
           stroke="#000000"
           stroke-linecap="round"
           stroke-linejoin="round"
           stroke-miterlimit="10"
           stroke-width="0.529167"
           d="m 93.039638,190.2186 c 0,0 -0.252148,2.2624 1.815253,2.09511 0.693129,-0.0561 2.06809,-0.17217 2.081478,-2.20734 0.0012,-0.18466 -0.0021,-0.42304 -0.214525,-0.6958 -0.281701,-0.36166 -0.944985,-0.52152 -2.631175,-0.37624 2.6e-5,3e-5 -0.911807,-0.0262 -1.051031,1.18427 z"
           id="path4-067" /><polyline
           fill="none"
           stroke="#000000"
           stroke-linecap="round"
           stroke-linejoin="round"
           stroke-miterlimit="10"
           stroke-width="2"
           points="18.9534,29.9307 18.5203,26.5594 22.3532,26.0317"
           id="polyline4"
           transform="matrix(0.26458333,0,0,0.26458333,88.043617,182.15839)" /><path
           fill="none"
           stroke="#000000"
           stroke-linecap="round"
           stroke-linejoin="round"
           stroke-miterlimit="10"
           stroke-width="0.529167"
           d="m 101.99806,190.2186 c 0,0 0.25215,2.2624 -1.81525,2.09511 -0.693133,-0.0561 -2.068093,-0.17217 -2.081481,-2.20734 -0.0012,-0.18466 0.0021,-0.42304 0.214524,-0.6958 0.281702,-0.36166 0.944986,-0.52152 2.631177,-0.37624 0,3e-5 0.91183,-0.0262 1.05103,1.18427 z"
           id="path5-1" /><path
           fill="none"
           stroke="#000000"
           stroke-linecap="round"
           stroke-linejoin="round"
           stroke-miterlimit="10"
           stroke-width="0.529167"
           d="m 96.379262,189.14757 c 0,0 1.091168,0.67043 2.290471,0"
           id="path6-87" /><path
           fill="none"
           stroke="#000000"
           stroke-linecap="round"
           stroke-linejoin="round"
           stroke-miterlimit="10"
           stroke-width="0.529167"
           d="m 96.91671,190.44458 c 0,0 0.582586,-0.99242 1.200203,0"
           id="path7-4" /><polyline
           fill="none"
           stroke="#000000"
           stroke-linecap="round"
           stroke-linejoin="round"
           stroke-miterlimit="10"
           stroke-width="2"
           points="52.6639,29.9332 53.097,26.5619 49.2641,26.0342"
           id="polyline7"
           transform="matrix(0.26458333,0,0,0.26458333,88.043617,182.15839)" /><path
           fill="none"
           stroke="#000000"
           stroke-linecap="round"
           stroke-linejoin="round"
           stroke-miterlimit="10"
           stroke-width="0.529167"
           d="m 97.027518,190.10306 c 0,0 0.475032,-0.99243 0.97864,0"
           id="path8-39" /></g></g></g></svg>
