<?xml version="1.0" encoding="UTF-8" standalone="no"?>
<!-- Created with Inkscape (http://www.inkscape.org/) -->

<svg
   width="8.8246164mm"
   height="7.8215919mm"
   viewBox="0 0 8.8246164 7.8215919"
   version="1.1"
   id="svg1"
   xml:space="preserve"
   xmlns:inkscape="http://www.inkscape.org/namespaces/inkscape"
   xmlns:sodipodi="http://sodipodi.sourceforge.net/DTD/sodipodi-0.dtd"
   xmlns="http://www.w3.org/2000/svg"
   xmlns:svg="http://www.w3.org/2000/svg"><sodipodi:namedview
     id="namedview1"
     pagecolor="#ffffff"
     bordercolor="#000000"
     borderopacity="0.25"
     inkscape:showpageshadow="2"
     inkscape:pageopacity="0.0"
     inkscape:pagecheckerboard="0"
     inkscape:deskcolor="#d1d1d1"
     inkscape:document-units="mm" /><defs
     id="defs1" /><g
     inkscape:label="Layer 1"
     inkscape:groupmode="layer"
     id="layer1"
     transform="translate(-186.20946,-1.2718618)"><g
       id="g182"
       transform="translate(115.62177,0.18265679)"><rect
         style="fill:none;fill-opacity:1;fill-rule:evenodd;stroke:none;stroke-width:2.17841;stroke-linejoin:round;stroke-opacity:1"
         id="rect174-3-2-4-7-9-8"
         width="7.821588"
         height="7.8215919"
         x="71.089203"
         y="1.089205" /><g
         id="g77"
         transform="translate(-36.615098,-188.11317)"><path
           fill="#d22f27"
           d="m 109.08957,192.17293 c -0.33478,-0.88744 -1.70418,-0.94422 -1.61841,0.34867 0.0114,0.17158 0.0743,0.33666 0.16971,0.47982 l 1.40702,1.69926 v 0 l 1.38145,-1.65788 c 0.15335,-0.18425 0.24405,-0.41748 0.23945,-0.65757 -0.0228,-1.15154 -1.33639,-1.06762 -1.62121,-0.21261"
           id="path1-59"
           style="stroke-width:0.264583" /><path
           fill="#d22f27"
           d="m 114.19655,192.17293 c -0.33197,-0.88744 -1.68997,-0.94422 -1.60491,0.34867 0.0113,0.17158 0.0737,0.33666 0.16831,0.47982 l 1.39533,1.69926 v 0 l 1.36993,-1.65788 c 0.15206,-0.18425 0.24202,-0.41748 0.23744,-0.65757 -0.0226,-1.15154 -1.32527,-1.06762 -1.60769,-0.21261"
           id="path2-23"
           style="stroke-width:0.264583" /><path
           fill="none"
           stroke="#000000"
           stroke-linecap="round"
           stroke-linejoin="round"
           stroke-miterlimit="10"
           stroke-width="0.529167"
           d="m 109.08957,192.17293 c -0.33478,-0.88744 -1.70418,-0.94422 -1.61841,0.34867 0.0114,0.17158 0.0743,0.33666 0.16971,0.47982 l 1.40702,1.69926 v 0 l 1.38145,-1.65788 c 0.15335,-0.18425 0.24405,-0.41748 0.23945,-0.65757 -0.0228,-1.15154 -1.33639,-1.06762 -1.62121,-0.21261 z"
           id="path5-72" /><path
           fill="none"
           stroke="#000000"
           stroke-linecap="round"
           stroke-linejoin="round"
           stroke-miterlimit="10"
           stroke-width="0.529167"
           d="m 114.19655,192.17293 c -0.33197,-0.88744 -1.68997,-0.94422 -1.60491,0.34867 0.0113,0.17158 0.0737,0.33666 0.16831,0.47982 l 1.39533,1.69926 v 0 l 1.36993,-1.65788 c 0.15206,-0.18425 0.24202,-0.41748 0.23744,-0.65757 -0.0226,-1.15154 -1.32527,-1.06762 -1.60769,-0.21261 z"
           id="path6-18" /></g></g></g></svg>
