<?xml version="1.0" encoding="UTF-8" standalone="no"?>
<!-- Created with Inkscape (http://www.inkscape.org/) -->

<svg
   width="8.0465126mm"
   height="7.8215919mm"
   viewBox="0 0 8.0465126 7.8215919"
   version="1.1"
   id="svg1"
   xml:space="preserve"
   xmlns:inkscape="http://www.inkscape.org/namespaces/inkscape"
   xmlns:sodipodi="http://sodipodi.sourceforge.net/DTD/sodipodi-0.dtd"
   xmlns="http://www.w3.org/2000/svg"
   xmlns:svg="http://www.w3.org/2000/svg"><sodipodi:namedview
     id="namedview1"
     pagecolor="#ffffff"
     bordercolor="#000000"
     borderopacity="0.25"
     inkscape:showpageshadow="2"
     inkscape:pageopacity="0.0"
     inkscape:pagecheckerboard="0"
     inkscape:deskcolor="#d1d1d1"
     inkscape:document-units="mm" /><defs
     id="defs1" /><g
     inkscape:label="Layer 1"
     inkscape:groupmode="layer"
     id="layer1"
     transform="translate(-123.60241,-18.396361)"><g
       id="g189"
       transform="translate(112.62567,17.307156)"><rect
         style="fill:none;fill-opacity:1;fill-rule:evenodd;stroke:none;stroke-width:2.17841;stroke-linejoin:round;stroke-opacity:1"
         id="rect174-3-2-4-7-9-8-0-3-4-8-1-7"
         width="7.821588"
         height="7.8215919"
         x="11.089205"
         y="1.089205" /><g
         id="g105"
         transform="translate(-86.323118,-189.39622)"><path
           fill="none"
           stroke="#000000"
           stroke-linecap="round"
           stroke-linejoin="round"
           stroke-miterlimit="10"
           stroke-width="0.529167"
           d="m 102.76086,192.3614 c 0.12348,-0.0661 0.66675,-0.29105 1.33403,-0.15195 0.56039,0.10374 0.64056,0.21915 0.9869,0.4564"
           id="path3-86" /><path
           fill="none"
           stroke="#000000"
           stroke-linecap="round"
           stroke-linejoin="round"
           stroke-miterlimit="10"
           stroke-width="0.529167"
           d="m 97.564444,192.87204 c 0.08641,-0.113 0.474134,-0.59399 1.170517,-0.7104 0.564885,-0.0944 1.003829,0.10628 1.151467,0.18203"
           id="path4-212" /><path
           d="m 100.13355,194.00975 c 0,0.43836 -0.355813,0.79375 -0.793751,0.79375 -0.437965,0 -0.79375,-0.35541 -0.79375,-0.79375 0,-0.43794 0.355785,-0.79375 0.79375,-0.79375 0.437938,0 0.793751,0.35581 0.793751,0.79375"
           id="path5-68"
           style="stroke-width:0.264583" /><path
           d="m 104.89605,194.00975 c 0,0.43836 -0.35579,0.79375 -0.79375,0.79375 -0.43797,0 -0.79375,-0.35541 -0.79375,-0.79375 0,-0.43794 0.35578,-0.79375 0.79375,-0.79375 0.43796,0 0.79375,0.35581 0.79375,0.79375"
           id="path6-95"
           style="stroke-width:0.264583" /></g></g></g></svg>
