<?xml version="1.0" encoding="UTF-8" standalone="no"?>
<!-- Created with Inkscape (http://www.inkscape.org/) -->

<svg
   width="7.821588mm"
   height="7.8215919mm"
   viewBox="0 0 7.821588 7.8215919"
   version="1.1"
   id="svg1"
   xml:space="preserve"
   xmlns:inkscape="http://www.inkscape.org/namespaces/inkscape"
   xmlns:sodipodi="http://sodipodi.sourceforge.net/DTD/sodipodi-0.dtd"
   xmlns="http://www.w3.org/2000/svg"
   xmlns:svg="http://www.w3.org/2000/svg"><sodipodi:namedview
     id="namedview1"
     pagecolor="#ffffff"
     bordercolor="#000000"
     borderopacity="0.25"
     inkscape:showpageshadow="2"
     inkscape:pageopacity="0.0"
     inkscape:pagecheckerboard="0"
     inkscape:deskcolor="#d1d1d1"
     inkscape:document-units="mm" /><defs
     id="defs1" /><g
     inkscape:label="Layer 1"
     inkscape:groupmode="layer"
     id="layer1"
     transform="translate(-126.71097,-1.2718618)"><g
       id="g176"
       transform="translate(115.62177,0.18265679)"><rect
         style="fill:none;fill-opacity:1;fill-rule:evenodd;stroke:none;stroke-width:2.17841;stroke-linejoin:round;stroke-opacity:1"
         id="rect174-3"
         width="7.821588"
         height="7.8215919"
         x="11.089205"
         y="1.089205" /><g
         id="g58"
         transform="translate(-108.11071,-182.45291)"><path
           d="m 121.5232,187.45291 c 0,0.43836 -0.35581,0.79375 -0.79375,0.79375 -0.43796,0 -0.79375,-0.35541 -0.79375,-0.79375 0,-0.43794 0.35579,-0.79375 0.79375,-0.79375 0.43794,0 0.79375,0.35581 0.79375,0.79375"
           id="path5-57"
           style="stroke-width:0.264583" /><path
           d="m 126.2857,187.45291 c 0,0.43836 -0.35579,0.79375 -0.79375,0.79375 -0.43796,0 -0.79375,-0.35541 -0.79375,-0.79375 0,-0.43794 0.35579,-0.79375 0.79375,-0.79375 0.43796,0 0.79375,0.35581 0.79375,0.79375"
           id="path6-16"
           style="stroke-width:0.264583" /></g></g></g></svg>
