<?xml version="1.0" encoding="UTF-8" standalone="no"?>
<!-- Created with Inkscape (http://www.inkscape.org/) -->

<svg
   width="8.4772511mm"
   height="7.8686695mm"
   viewBox="0 0 8.4772511 7.8686695"
   version="1.1"
   id="svg1"
   xml:space="preserve"
   xmlns:inkscape="http://www.inkscape.org/namespaces/inkscape"
   xmlns:sodipodi="http://sodipodi.sourceforge.net/DTD/sodipodi-0.dtd"
   xmlns="http://www.w3.org/2000/svg"
   xmlns:svg="http://www.w3.org/2000/svg"><sodipodi:namedview
     id="namedview1"
     pagecolor="#ffffff"
     bordercolor="#000000"
     borderopacity="0.25"
     inkscape:showpageshadow="2"
     inkscape:pageopacity="0.0"
     inkscape:pagecheckerboard="0"
     inkscape:deskcolor="#d1d1d1"
     inkscape:document-units="mm" /><defs
     id="defs1" /><g
     inkscape:label="Layer 1"
     inkscape:groupmode="layer"
     id="layer1"
     transform="translate(-178.11104,-38.497913)"><g
       id="g204"
       transform="translate(127.34967,37.455786)"><rect
         style="fill:none;fill-opacity:1;fill-rule:evenodd;stroke:none;stroke-width:2.17841;stroke-linejoin:round;stroke-opacity:1"
         id="rect174-3-2-4-7-9-8-0-3-4-8-1-7-8-2-9-0-6-1-2-8-0-6-4-4-2-7"
         width="7.8215871"
         height="7.8215909"
         x="51.089207"
         y="1.089205" /><g
         id="g153"
         transform="translate(-51.009821,-180.42604)"><g
           id="g152"><path
             d="m 105.73994,185.27407 a 1.984375,1.984375 0 1 0 -3.66371,1.0523 0.22463125,0.22463125 0 0 1 0.10711,-0.25204 0.58689874,0.58689874 0 0 1 0.31623,-0.069 1.4507104,1.4507104 0 0 1 1.06169,-2.17194 1.4234583,1.4234583 0 1 0 1.53421,2.17421 0.82827811,0.82827811 0 0 1 0.19384,0.0207 h 2.6e-4 a 0.23227771,0.23227771 0 0 1 0.15505,0.14364 0.22730354,0.22730354 0 0 1 0.002,0.13574 1.9695848,1.9695848 0 0 0 0.29366,-1.03365 z m -1.6229,0.26828 a 0.79374999,0.79374999 0 1 1 0.79375,-0.79375 0.79404103,0.79404103 0 0 1 -0.79375,0.79375 z"
             id="path1-0"
             style="stroke-width:0.264583" /><path
             d="m 110.24844,185.27407 a 1.984375,1.984375 0 1 0 -3.66993,1.04211 0.23426208,0.23426208 0 0 1 0.002,-0.0931 0.2301875,0.2301875 0 0 1 0.1093,-0.14856 0.58433228,0.58433228 0 0 1 0.31898,-0.0685 1.4504987,1.4504987 0 0 1 1.03651,-2.16887 1.4239081,1.4239081 0 1 0 1.55112,2.17067 0.84611103,0.84611103 0 0 1 0.19941,0.0207 0.23211896,0.23211896 0 0 1 0.15529,0.14367 0.22783271,0.22783271 0 0 1 -0.003,0.14636 1.9698229,1.9698229 0 0 0 0.3003,-1.04449 z m -1.63065,0.26828 a 0.79374999,0.79374999 0 1 1 0.79375,-0.79375 0.79404103,0.79404103 0 0 1 -0.79375,0.79375 z"
             id="path2-62"
             style="stroke-width:0.264583" /><circle
             cx="103.74236"
             cy="185.27406"
             r="1.7197917"
             fill="#ffffff"
             id="circle3-7"
             style="stroke-width:0.264583" /><circle
             cx="108.2641"
             cy="185.27406"
             r="1.7197917"
             fill="#ffffff"
             id="circle4-6"
             style="stroke-width:0.264583" /><path
             fill="#92d3f5"
             d="m 105.28793,186.03342 a 1.0222442,1.0222442 0 0 0 -0.49017,0.0124 1.4064985,1.4064985 0 0 0 -0.2713,0.13616 c -0.0871,0.0527 -0.19534,0.11808 -0.30488,0.17261 a 1.1387667,1.1387667 0 0 1 -0.97824,-0.0553 c -0.038,-0.0202 -0.0754,-0.0426 -0.11187,-0.0643 l -0.0116,-0.007 a 1.7943248,1.7943248 0 0 0 -0.28311,-0.14674 0.80597374,0.80597374 0 0 0 -0.65087,-0.002 0.22576896,0.22576896 0 0 0 -0.0736,0.32168 1.9470158,1.9470158 0 0 0 1.63729,0.8658 1.9929475,1.9929475 0 0 0 1.66449,-0.88778 0.22613937,0.22613937 0 0 0 -0.12607,-0.34518 z"
             id="path4-16"
             style="stroke-width:0.264583" /><path
             fill="#92d3f5"
             d="m 109.94576,186.17405 a 0.22674791,0.22674791 0 0 0 -0.15166,-0.14023 1.0224558,1.0224558 0 0 0 -0.49014,0.0124 1.4049375,1.4049375 0 0 0 -0.2713,0.13618 c -0.0871,0.0527 -0.19534,0.11809 -0.30491,0.17259 a 1.1386079,1.1386079 0 0 1 -0.97822,-0.0553 c -0.038,-0.0202 -0.0755,-0.0427 -0.11189,-0.0643 l -0.0116,-0.007 a 1.7966796,1.7966796 0 0 0 -0.28311,-0.14677 0.80713791,0.80713791 0 0 0 -0.65087,-0.002 0.22579541,0.22579541 0 0 0 -0.0736,0.32171 1.9469629,1.9469629 0 0 0 1.63738,0.86582 1.9866239,1.9866239 0 0 0 1.66449,-0.88778 0.22976416,0.22976416 0 0 0 0.0255,-0.20497 z"
             id="path5-6"
             style="stroke-width:0.264583" /><path
             d="m 105.73994,185.27407 a 1.984375,1.984375 0 1 0 -3.66371,1.0523 0.22463125,0.22463125 0 0 1 0.10711,-0.25204 0.58689874,0.58689874 0 0 1 0.31623,-0.069 1.4507104,1.4507104 0 0 1 1.06169,-2.17194 1.4234583,1.4234583 0 1 0 1.53421,2.17421 0.82827811,0.82827811 0 0 1 0.19384,0.0207 h 2.6e-4 a 0.23227771,0.23227771 0 0 1 0.15505,0.14364 0.22730354,0.22730354 0 0 1 0.002,0.13574 1.9695848,1.9695848 0 0 0 0.29366,-1.03365 z m -1.6229,0.26828 a 0.79374999,0.79374999 0 1 1 0.79375,-0.79375 0.79404103,0.79404103 0 0 1 -0.79375,0.79375 z"
             id="path6-92"
             style="stroke-width:0.264583" /><path
             d="m 110.24844,185.27407 a 1.984375,1.984375 0 1 0 -3.66993,1.04211 0.23426208,0.23426208 0 0 1 0.002,-0.0931 0.2301875,0.2301875 0 0 1 0.1093,-0.14856 0.58433228,0.58433228 0 0 1 0.31898,-0.0685 1.4504987,1.4504987 0 0 1 1.03651,-2.16887 1.4239081,1.4239081 0 1 0 1.55112,2.17067 0.84611103,0.84611103 0 0 1 0.19941,0.0207 0.23211896,0.23211896 0 0 1 0.15529,0.14367 0.22783271,0.22783271 0 0 1 -0.003,0.14636 1.9698229,1.9698229 0 0 0 0.3003,-1.04449 z m -1.63065,0.26828 a 0.79374999,0.79374999 0 1 1 0.79375,-0.79375 0.79404103,0.79404103 0 0 1 -0.79375,0.79375 z"
             id="path7-0"
             style="stroke-width:0.264583" /><path
             fill="none"
             stroke="#000000"
             stroke-linecap="round"
             stroke-linejoin="round"
             stroke-width="0.529167"
             d="m 104.58713,181.73275 a 1.8988352,1.8988352 0 0 1 -1.04138,0.889 1.87325,1.87325 0 0 1 -1.1658,0.005"
             id="path8-9" /><path
             fill="none"
             stroke="#000000"
             stroke-linecap="round"
             stroke-linejoin="round"
             stroke-width="0.529167"
             d="m 109.90451,182.43443 a 1.8976181,1.8976181 0 0 1 -1.36168,0.14322 1.8746523,1.8746523 0 0 1 -0.9639,-0.65585"
             id="path9-8" /></g></g></g></g></svg>
