<?xml version="1.0" encoding="UTF-8" standalone="no"?>
<!-- Created with Inkscape (http://www.inkscape.org/) -->

<svg
   width="7.821588mm"
   height="7.8215919mm"
   viewBox="0 0 7.821588 7.8215919"
   version="1.1"
   id="svg1"
   xml:space="preserve"
   xmlns:inkscape="http://www.inkscape.org/namespaces/inkscape"
   xmlns:sodipodi="http://sodipodi.sourceforge.net/DTD/sodipodi-0.dtd"
   xmlns="http://www.w3.org/2000/svg"
   xmlns:svg="http://www.w3.org/2000/svg"><sodipodi:namedview
     id="namedview1"
     pagecolor="#ffffff"
     bordercolor="#000000"
     borderopacity="0.25"
     inkscape:showpageshadow="2"
     inkscape:pageopacity="0.0"
     inkscape:pagecheckerboard="0"
     inkscape:deskcolor="#d1d1d1"
     inkscape:document-units="mm" /><defs
     id="defs1" /><g
     inkscape:label="Layer 1"
     inkscape:groupmode="layer"
     id="layer1"
     transform="translate(-128.96805,-37.632495)"><g
       id="g175"
       transform="translate(127.87884,36.54329)"><rect
         style="fill:none;fill-opacity:1;fill-rule:evenodd;stroke:none;stroke-width:2.17841;stroke-linejoin:round;stroke-opacity:1"
         id="rect174"
         width="7.821588"
         height="7.8215919"
         x="1.089205"
         y="1.089205" /><g
         id="g56"
         transform="matrix(0.99995143,0,0,1.0000651,-6.506824,-233.7159)"><path
           d="m 9.9198805,238.55823 c 0,0.43833 -0.3558117,0.79375 -0.79375,0.79375 -0.4379648,0 -0.79375,-0.35542 -0.79375,-0.79375 0,-0.43797 0.3557852,-0.79375 0.79375,-0.79375 0.4379383,0 0.79375,0.35581 0.79375,0.79375"
           id="path2-19"
           style="stroke-width:0.264583" /><path
           d="m 14.68238,238.55823 c 0,0.43833 -0.355785,0.79375 -0.79375,0.79375 -0.437964,0 -0.79375,-0.35542 -0.79375,-0.79375 0,-0.43797 0.355786,-0.79375 0.79375,-0.79375 0.437965,0 0.79375,0.35581 0.79375,0.79375"
           id="path3-29"
           style="stroke-width:0.264583" /><line
           x1="8.0678005"
           x2="9.9198837"
           y1="236.19678"
           y2="237.25511"
           fill="none"
           stroke="#000000"
           stroke-linecap="round"
           stroke-linejoin="round"
           stroke-miterlimit="10"
           stroke-width="0.529167"
           id="line3-6" /><line
           x1="14.946963"
           x2="13.094884"
           y1="236.19678"
           y2="237.25511"
           fill="none"
           stroke="#000000"
           stroke-linecap="round"
           stroke-linejoin="round"
           stroke-miterlimit="10"
           stroke-width="0.529167"
           id="line4-18" /></g></g></g></svg>
