<?xml version="1.0" encoding="UTF-8" standalone="no"?>
<!-- Created with Inkscape (http://www.inkscape.org/) -->

<svg
   width="11.732385mm"
   height="11.987091mm"
   viewBox="0 0 11.732385 11.987091"
   version="1.1"
   id="svg1"
   xml:space="preserve"
   xmlns:inkscape="http://www.inkscape.org/namespaces/inkscape"
   xmlns:sodipodi="http://sodipodi.sourceforge.net/DTD/sodipodi-0.dtd"
   xmlns="http://www.w3.org/2000/svg"
   xmlns:svg="http://www.w3.org/2000/svg"><sodipodi:namedview
     id="namedview1"
     pagecolor="#ffffff"
     bordercolor="#000000"
     borderopacity="0.25"
     inkscape:showpageshadow="2"
     inkscape:pageopacity="0.0"
     inkscape:pagecheckerboard="0"
     inkscape:deskcolor="#d1d1d1"
     inkscape:document-units="mm" /><defs
     id="defs1" /><g
     inkscape:label="Layer 1"
     inkscape:groupmode="layer"
     id="layer1"
     transform="translate(-172.08327,-25.086149)"><g
       id="g199"
       transform="translate(130.44946,26.864839)"><rect
         style="fill:none;fill-opacity:1;fill-rule:evenodd;stroke:none;stroke-width:3.26762;stroke-linejoin:round;stroke-opacity:1"
         id="rect174-3-2-4-7-9-8-0-3-4-8-1-7-8-2-9-0-6-1-2-8-0"
         width="11.732385"
         height="11.73239"
         x="41.633808"
         y="-1.7786899" /><g
         id="g163"
         transform="translate(-82.836245,-186.35142)"><path
           fill="#92d3f5"
           d="m 128.64348,190.09863 c -1.52452,2.52439 -1.02129,3.7756 -0.9779,6.34471 0,0.47704 -1.36154,-0.63818 -1.5875,-1.05834 -0.57414,-1.56633 -0.10554,-3.65389 0.66146,-5.07471 0.76386,-0.42915 1.84997,-0.55139 1.90394,-0.21248 z"
           id="path8-3"
           style="stroke-width:0.264583" /><path
           fill="#92d3f5"
           d="m 131.97723,190.19917 c 1.52453,2.52439 1.0213,3.51102 0.9779,6.08012 0,0.47705 1.4277,-0.63817 1.65365,-1.05833 0.57415,-1.56633 0.0394,-3.38931 -0.7276,-4.81012 -0.76386,-0.42916 -1.84997,-0.5514 -1.90395,-0.21249 z"
           id="path9"
           style="stroke-width:0.264583" /><path
           fill="none"
           stroke="#000000"
           stroke-linecap="round"
           stroke-linejoin="round"
           stroke-width="0.529167"
           d="m 131.50098,190.31029 c 0.10933,-0.091 0.59426,-0.47413 1.29884,-0.43285 0.57177,0.0333 0.95515,0.32623 1.08241,0.43285"
           id="path10" /><path
           fill="none"
           stroke="#000000"
           stroke-linecap="round"
           stroke-linejoin="round"
           stroke-width="0.529167"
           d="m 126.73848,190.31029 c 0.10933,-0.091 0.59426,-0.47413 1.29884,-0.43285 0.57177,0.0333 0.95515,0.32623 1.08241,0.43285"
           id="path11" /></g></g></g></svg>
