<?xml version="1.0" encoding="UTF-8" standalone="no"?>
<!-- Created with Inkscape (http://www.inkscape.org/) -->

<svg
   width="9.6775522mm"
   height="7.8215919mm"
   viewBox="0 0 9.6775522 7.8215919"
   version="1.1"
   id="svg1"
   xml:space="preserve"
   xmlns:inkscape="http://www.inkscape.org/namespaces/inkscape"
   xmlns:sodipodi="http://sodipodi.sourceforge.net/DTD/sodipodi-0.dtd"
   xmlns="http://www.w3.org/2000/svg"
   xmlns:svg="http://www.w3.org/2000/svg"><sodipodi:namedview
     id="namedview1"
     pagecolor="#ffffff"
     bordercolor="#000000"
     borderopacity="0.25"
     inkscape:showpageshadow="2"
     inkscape:pageopacity="0.0"
     inkscape:pagecheckerboard="0"
     inkscape:deskcolor="#d1d1d1"
     inkscape:document-units="mm" /><defs
     id="defs1" /><g
     inkscape:label="Layer 1"
     inkscape:groupmode="layer"
     id="layer1"
     transform="translate(-172.78689,-18.396361)"><g
       id="g194"
       transform="translate(112.62567,17.307156)"><rect
         style="fill:none;fill-opacity:1;fill-rule:evenodd;stroke:none;stroke-width:2.17841;stroke-linejoin:round;stroke-opacity:1"
         id="rect174-3-2-4-7-9-8-0-3-4-8-1-7-8-2-9-0-6"
         width="7.821588"
         height="7.8215919"
         x="61.089207"
         y="1.089205" /><g
         id="g143"
         transform="translate(-47.699259,-176.84807)"><path
           fill="none"
           stroke="#000000"
           stroke-linecap="round"
           stroke-linejoin="round"
           stroke-miterlimit="10"
           stroke-width="0.529167"
           d="m 108.22092,181.08575 c 0,0 -0.25215,2.2624 1.81526,2.09511 0.69312,-0.0561 2.06808,-0.17217 2.08147,-2.20734 0.001,-0.18465 -0.002,-0.42304 -0.21452,-0.6958 -0.2817,-0.36166 -0.94499,-0.52152 -2.63118,-0.37624 3e-5,3e-5 -0.9118,-0.0262 -1.05103,1.18427 z"
           id="path3-63" /><polyline
           fill="none"
           stroke="#000000"
           stroke-linecap="round"
           stroke-linejoin="round"
           stroke-miterlimit="10"
           stroke-width="2"
           points="19.1447,29.8742 18.7117,26.5029 22.5446,25.9752"
           id="polyline3"
           transform="matrix(0.26458333,0,0,0.26458333,103.17426,173.04049)" /><path
           fill="none"
           stroke="#000000"
           stroke-linecap="round"
           stroke-linejoin="round"
           stroke-miterlimit="10"
           stroke-width="0.529167"
           d="m 117.17932,181.08575 c 0,0 0.25215,2.2624 -1.81526,2.09511 -0.69313,-0.0561 -2.06809,-0.17217 -2.08147,-2.20734 -0.001,-0.18465 0.002,-0.42304 0.21452,-0.6958 0.2817,-0.36166 0.94499,-0.52152 2.63118,-0.37624 0,3e-5 0.91183,-0.0262 1.05103,1.18427 z"
           id="path4-88" /><path
           fill="none"
           stroke="#000000"
           stroke-linecap="round"
           stroke-linejoin="round"
           stroke-miterlimit="10"
           stroke-width="0.529167"
           d="m 111.56055,180.01472 c 0,0 1.09116,0.67043 2.29047,0"
           id="path5-76" /><path
           fill="none"
           stroke="#000000"
           stroke-linecap="round"
           stroke-linejoin="round"
           stroke-miterlimit="10"
           stroke-width="0.529167"
           d="m 112.11776,181.31174 c 0,0 0.5629,-0.99243 1.15967,0"
           id="path6-59" /><polyline
           fill="none"
           stroke="#000000"
           stroke-linecap="round"
           stroke-linejoin="round"
           stroke-miterlimit="10"
           stroke-width="2"
           points="52.8552,29.8767 53.2883,26.5054 49.4554,25.9777"
           id="polyline6"
           transform="matrix(0.26458333,0,0,0.26458333,103.17426,173.04049)" /><path
           fill="none"
           stroke="#000000"
           stroke-linecap="round"
           stroke-linejoin="round"
           stroke-miterlimit="10"
           stroke-width="0.529167"
           d="m 112.2088,180.97021 c 0,0 0.47503,-0.99242 0.97864,0"
           id="path7-98" /><path
           d="m 111.11176,181.24257 c 0,0.43836 -0.35581,0.79375 -0.79375,0.79375 -0.43796,0 -0.79375,-0.35541 -0.79375,-0.79375 0,-0.43794 0.35579,-0.79375 0.79375,-0.79375 0.43794,0 0.79375,0.35581 0.79375,0.79375"
           id="path9-3"
           style="stroke-width:0.264583" /><path
           d="m 115.87426,181.24257 c 0,0.43836 -0.35579,0.79375 -0.79375,0.79375 -0.43796,0 -0.79375,-0.35541 -0.79375,-0.79375 0,-0.43794 0.35579,-0.79375 0.79375,-0.79375 0.43796,0 0.79375,0.35581 0.79375,0.79375"
           id="path10-5"
           style="stroke-width:0.264583" /></g></g></g></svg>
