<?xml version="1.0" encoding="UTF-8" standalone="no"?>
<!-- Created with Inkscape (http://www.inkscape.org/) -->

<svg
   width="8.2814569mm"
   height="7.8215919mm"
   viewBox="0 0 8.2814569 7.8215919"
   version="1.1"
   id="svg1"
   xml:space="preserve"
   xmlns:inkscape="http://www.inkscape.org/namespaces/inkscape"
   xmlns:sodipodi="http://sodipodi.sourceforge.net/DTD/sodipodi-0.dtd"
   xmlns="http://www.w3.org/2000/svg"
   xmlns:svg="http://www.w3.org/2000/svg"><sodipodi:namedview
     id="namedview1"
     pagecolor="#ffffff"
     bordercolor="#000000"
     borderopacity="0.25"
     inkscape:showpageshadow="2"
     inkscape:pageopacity="0.0"
     inkscape:pagecheckerboard="0"
     inkscape:deskcolor="#d1d1d1"
     inkscape:document-units="mm" /><defs
     id="defs1" /><g
     inkscape:label="Layer 1"
     inkscape:groupmode="layer"
     id="layer1"
     transform="translate(-136.0681,-11.421835)"><g
       id="g185"
       transform="translate(115.20883,10.33263)"><rect
         style="fill:none;fill-opacity:1;fill-rule:evenodd;stroke:none;stroke-width:2.17841;stroke-linejoin:round;stroke-opacity:1"
         id="rect174-3-2-4-7-9-8-0-3"
         width="7.821588"
         height="7.8215919"
         x="21.089205"
         y="1.089205" /><g
         id="g89"
         transform="translate(-84.972636,-186.00433)"><path
           fill="none"
           stroke="#000000"
           stroke-linecap="round"
           stroke-linejoin="round"
           stroke-width="0.529167"
           d="m 106.09649,189.59375 c 0.18521,-0.37042 0.50271,-0.635 0.87313,-0.7673 0.34396,-0.1852 0.76729,-0.21166 1.13771,-0.10583"
           id="path3-545" /><path
           fill="none"
           stroke="#000000"
           stroke-linecap="round"
           stroke-linejoin="round"
           stroke-width="0.529167"
           d="m 113.84878,189.59375 c -0.39687,-0.71438 -1.21708,-1.05834 -2.01083,-0.87313"
           id="path4-61" /><path
           d="m 108.37191,190.705 c 0,0.44979 -0.34396,0.79375 -0.79375,0.79375 -0.44979,0 -0.79375,-0.34396 -0.79375,-0.79375 0,-0.4498 0.34396,-0.79375 0.79375,-0.79375 v 0 c 0.42333,0 0.79375,0.34395 0.79375,0.76729 0,0 0,0.0265 0,0.0265"
           id="path9-58"
           style="stroke-width:0.264583" /><path
           d="m 113.13441,190.705 c 0,0.44979 -0.34396,0.79375 -0.79375,0.79375 -0.44979,0 -0.79375,-0.34396 -0.79375,-0.79375 0,-0.4498 0.34396,-0.79375 0.79375,-0.79375 v 0 c 0.42333,0 0.79375,0.34395 0.79375,0.76729 0,0 0,0.0265 0,0.0265"
           id="path10-4"
           style="stroke-width:0.264583" /></g></g></g></svg>
