<?xml version="1.0" encoding="UTF-8" standalone="no"?>
<!-- Created with Inkscape (http://www.inkscape.org/) -->

<svg
   width="7.9480772mm"
   height="7.8215919mm"
   viewBox="0 0 7.9480772 7.8215919"
   version="1.1"
   id="svg1"
   xml:space="preserve"
   xmlns:inkscape="http://www.inkscape.org/namespaces/inkscape"
   xmlns:sodipodi="http://sodipodi.sourceforge.net/DTD/sodipodi-0.dtd"
   xmlns="http://www.w3.org/2000/svg"
   xmlns:svg="http://www.w3.org/2000/svg"><sodipodi:namedview
     id="namedview1"
     pagecolor="#ffffff"
     bordercolor="#000000"
     borderopacity="0.25"
     inkscape:showpageshadow="2"
     inkscape:pageopacity="0.0"
     inkscape:pagecheckerboard="0"
     inkscape:deskcolor="#d1d1d1"
     inkscape:document-units="mm" /><defs
     id="defs1" /><g
     inkscape:label="Layer 1"
     inkscape:groupmode="layer"
     id="layer1"
     transform="translate(-126.23479,-11.421835)"><g
       id="g184"
       transform="translate(115.20883,10.33263)"><rect
         style="fill:none;fill-opacity:1;fill-rule:evenodd;stroke:none;stroke-width:2.17841;stroke-linejoin:round;stroke-opacity:1"
         id="rect174-3-2-4-7-9-8-0"
         width="7.821588"
         height="7.8215919"
         x="11.089205"
         y="1.089205" /><g
         id="g87"
         transform="translate(-103.81416,-188.85673)"><g
           id="g86"><g
             id="g85"><path
               fill="#ffffff"
               d="m 117.42245,193.52556 c 0,0.65194 -0.52917,1.18084 -1.18084,1.18084 -0.65167,0 -1.18083,-0.52864 -1.18083,-1.18084 0,-0.6514 0.52916,-1.18083 1.18083,-1.18083 0.65167,0 1.18084,0.52916 1.18084,1.18083 z"
               id="path2-05"
               style="stroke-width:0.264583" /><path
               fill="#ffffff"
               d="m 122.4707,193.93567 c 0,0.89005 -0.72232,1.61157 -1.61158,1.61157 -0.88927,0 -1.61158,-0.72152 -1.61158,-1.61157 0,-0.88927 0.72231,-1.61158 1.61158,-1.61158 0.88926,0 1.61158,0.72231 1.61158,1.61158 z"
               id="path3-16"
               style="stroke-width:0.264583" /><path
               fill="none"
               stroke="#000000"
               stroke-miterlimit="10"
               stroke-width="0.529167"
               d="m 117.47536,193.55731 c 0,0.65194 -0.52916,1.18084 -1.18083,1.18084 -0.65167,0 -1.18084,-0.52864 -1.18084,-1.18084 0,-0.6514 0.52917,-1.18083 1.18084,-1.18083 0.65167,0 1.18083,0.52916 1.18083,1.18083"
               id="path6-7" /><path
               d="m 116.5652,193.82454 c 0,0.2921 -0.2372,0.52917 -0.52917,0.52917 -0.29197,0 -0.52917,-0.23694 -0.52917,-0.52917 0,-0.2921 0.2372,-0.52917 0.52917,-0.52917 0.29197,0 0.52917,0.2372 0.52917,0.52917"
               id="path7-17"
               style="stroke-width:0.264583" /><path
               fill="none"
               stroke="#000000"
               stroke-miterlimit="10"
               stroke-width="0.529167"
               d="m 122.52361,193.96477 c 0,0.89006 -0.72231,1.61158 -1.61157,1.61158 -0.88927,0 -1.61158,-0.72152 -1.61158,-1.61158 0,-0.88926 0.72231,-1.61158 1.61158,-1.61158 0.88926,0 1.61157,0.72232 1.61157,1.61158"
               id="path8-0" /><path
               d="m 121.99445,193.77162 c 0,0.399 -0.32385,0.72232 -0.72232,0.72232 -0.39846,0 -0.72231,-0.32332 -0.72231,-0.72232 0,-0.39846 0.32385,-0.72231 0.72231,-0.72231 0.39847,0 0.72232,0.32385 0.72232,0.72231"
               id="path9-06"
               style="stroke-width:0.264583" /><path
               fill="none"
               stroke="#000000"
               stroke-linecap="round"
               stroke-linejoin="round"
               stroke-miterlimit="10"
               stroke-width="0.529167"
               d="m 119.3592,191.61262 c 0.10932,-0.091 0.59425,-0.47413 1.29884,-0.43285 0.57176,0.0333 0.95514,0.32623 1.08241,0.43285"
               id="path10-2" /><path
               fill="none"
               stroke="#000000"
               stroke-linecap="round"
               stroke-linejoin="round"
               stroke-miterlimit="10"
               stroke-width="0.529167"
               d="m 115.1047,191.51473 c 0.10932,-0.091 0.59425,-0.47413 1.29884,-0.43286 0.57176,0.0333 0.95514,0.32623 1.08241,0.43286"
               id="path11-02" /></g></g></g></g></g></svg>
