<?xml version="1.0" encoding="UTF-8" standalone="no"?>
<!-- Created with Inkscape (http://www.inkscape.org/) -->

<svg
   width="8.1227074mm"
   height="7.8215919mm"
   viewBox="0 0 8.1227074 7.8215919"
   version="1.1"
   id="svg1"
   xml:space="preserve"
   xmlns:inkscape="http://www.inkscape.org/namespaces/inkscape"
   xmlns:sodipodi="http://sodipodi.sourceforge.net/DTD/sodipodi-0.dtd"
   xmlns="http://www.w3.org/2000/svg"
   xmlns:svg="http://www.w3.org/2000/svg"><sodipodi:namedview
     id="namedview1"
     pagecolor="#ffffff"
     bordercolor="#000000"
     borderopacity="0.25"
     inkscape:showpageshadow="2"
     inkscape:pageopacity="0.0"
     inkscape:pagecheckerboard="0"
     inkscape:deskcolor="#d1d1d1"
     inkscape:document-units="mm" /><defs
     id="defs1" /><g
     inkscape:label="Layer 1"
     inkscape:groupmode="layer"
     id="layer1"
     transform="translate(-146.14748,-11.421835)"><g
       id="g186"
       transform="translate(115.20883,10.33263)"><rect
         style="fill:none;fill-opacity:1;fill-rule:evenodd;stroke:none;stroke-width:2.17841;stroke-linejoin:round;stroke-opacity:1"
         id="rect174-3-2-4-7-9-8-0-3-4"
         width="7.821588"
         height="7.8215919"
         x="31.089205"
         y="1.089205" /><g
         id="g96"
         transform="translate(-79.541611,-187.09467)"><path
           fill="none"
           stroke="#000000"
           stroke-linecap="round"
           stroke-linejoin="round"
           stroke-width="0.529167"
           d="m 110.74484,188.91294 c 0.34395,-0.23812 0.74083,-0.34395 1.16416,-0.29104 0.42334,0 0.82021,0.15875 1.11125,0.44979"
           id="path3-4" /><path
           fill="none"
           stroke="#000000"
           stroke-linecap="round"
           stroke-linejoin="round"
           stroke-width="0.529167"
           d="m 118.33838,189.97128 c -0.71438,-0.18521 -1.45521,-0.21167 -2.16959,-0.0794"
           id="path4-77" /><path
           d="m 113.02025,191.08253 c 0,0.44979 -0.34396,0.79375 -0.79375,0.79375 -0.44979,0 -0.79375,-0.34396 -0.79375,-0.79375 0,-0.44979 0.34396,-0.79375 0.79375,-0.79375 0.44979,0 0.79375,0.34396 0.79375,0.79375"
           id="path6-82"
           style="stroke-width:0.264583" /><path
           d="m 117.51817,191.87628 c 0,0.44979 -0.34396,0.79375 -0.79375,0.79375 -0.44979,0 -0.79375,-0.34396 -0.79375,-0.79375 0,-0.44979 0.34396,-0.79375 0.79375,-0.79375 0.44979,0 0.79375,0.34396 0.79375,0.79375"
           id="path7-02"
           style="stroke-width:0.264583" /></g></g></g></svg>
