<?xml version="1.0" encoding="UTF-8" standalone="no"?>
<!-- Created with Inkscape (http://www.inkscape.org/) -->

<svg
   width="8.7312469mm"
   height="7.8215909mm"
   viewBox="0 0 8.7312469 7.8215909"
   version="1.1"
   id="svg1"
   xml:space="preserve"
   xmlns:inkscape="http://www.inkscape.org/namespaces/inkscape"
   xmlns:sodipodi="http://sodipodi.sourceforge.net/DTD/sodipodi-0.dtd"
   xmlns="http://www.w3.org/2000/svg"
   xmlns:svg="http://www.w3.org/2000/svg"><sodipodi:namedview
     id="namedview1"
     pagecolor="#ffffff"
     bordercolor="#000000"
     borderopacity="0.25"
     inkscape:showpageshadow="2"
     inkscape:pageopacity="0.0"
     inkscape:pagecheckerboard="0"
     inkscape:deskcolor="#d1d1d1"
     inkscape:document-units="mm" /><defs
     id="defs1" /><g
     inkscape:label="Layer 1"
     inkscape:groupmode="layer"
     id="layer1"
     transform="translate(-187.98405,-38.544991)"><g
       id="g205"
       transform="translate(127.34967,37.455786)"><rect
         style="fill:none;fill-opacity:1;fill-rule:evenodd;stroke:none;stroke-width:2.17841;stroke-linejoin:round;stroke-opacity:1"
         id="rect174-3-2-4-7-9-8-0-3-4-8-1-7-8-2-9-0-6-1-2-8-0-6-4-4-2-7-2"
         width="7.8215871"
         height="7.8215909"
         x="61.089207"
         y="1.089205" /><g
         id="g150"
         transform="translate(-69.98339,-179.26817)"><path
           fill="#ffffff"
           d="m 134.32193,183.96372 c 0,0.94985 -0.77099,1.71979 -1.71979,1.71979 -0.9488,0 -1.71979,-0.76994 -1.71979,-1.71979 0,-0.9488 0.77099,-1.71979 1.71979,-1.71979 0.9488,0 1.71979,0.77099 1.71979,1.71979"
           id="path5-21"
           style="stroke-width:0.264583" /><path
           fill="#ffffff"
           d="m 139.08443,183.96372 c 0,0.94985 -0.77099,1.71979 -1.71979,1.71979 -0.9488,0 -1.71979,-0.76994 -1.71979,-1.71979 0,-0.9488 0.77099,-1.71979 1.71979,-1.71979 0.9488,0 1.71979,0.77099 1.71979,1.71979"
           id="path6-8"
           style="stroke-width:0.264583" /><path
           d="m 133.27947,183.99547 c 0,0.37332 -0.30321,0.67627 -0.67627,0.67627 -0.37306,0 -0.67628,-0.30268 -0.67628,-0.67627 0,-0.37307 0.30322,-0.67628 0.67628,-0.67628 0.37306,0 0.67627,0.30321 0.67627,0.67628"
           id="path9-5"
           style="stroke-width:0.264583" /><path
           d="m 138.04197,183.99547 c 0,0.37332 -0.30321,0.67627 -0.67627,0.67627 -0.37306,0 -0.67628,-0.30268 -0.67628,-0.67627 0,-0.37307 0.30322,-0.67628 0.67628,-0.67628 0.37306,0 0.67627,0.30321 0.67627,0.67628"
           id="path10-7"
           style="stroke-width:0.264583" /><path
           fill="none"
           stroke="#000000"
           stroke-miterlimit="10"
           stroke-width="0.529167"
           d="m 134.32193,183.99547 c 0,0.94985 -0.77099,1.71979 -1.71979,1.71979 -0.9488,0 -1.71979,-0.76994 -1.71979,-1.71979 0,-0.9488 0.77099,-1.71979 1.71979,-1.71979 0.9488,0 1.71979,0.77099 1.71979,1.71979"
           id="path11-0" /><path
           fill="none"
           stroke="#000000"
           stroke-miterlimit="10"
           stroke-width="0.529167"
           d="m 139.08443,183.99547 c 0,0.94985 -0.77099,1.71979 -1.71979,1.71979 -0.9488,0 -1.71979,-0.76994 -1.71979,-1.71979 0,-0.9488 0.77099,-1.71979 1.71979,-1.71979 0.9488,0 1.71979,0.77099 1.71979,1.71979"
           id="path12-7" /><path
           fill="none"
           stroke="#000000"
           stroke-linecap="round"
           stroke-linejoin="round"
           stroke-miterlimit="10"
           stroke-width="0.529167"
           d="m 131.1972,181.35228 c 0.0933,-0.10742 0.51012,-0.5633 1.21232,-0.63632 0.56965,-0.0591 0.9951,0.16846 1.13798,0.25326"
           id="path13-4" /><path
           fill="none"
           stroke="#000000"
           stroke-linecap="round"
           stroke-linejoin="round"
           stroke-miterlimit="10"
           stroke-width="0.529167"
           d="m 136.42008,180.96334 c 0.12276,-0.0719 0.66384,-0.37041 1.35228,-0.21439 0.55854,0.1265 0.88874,0.47837 0.99695,0.60431"
           id="path14-4" /></g></g></g></svg>
