<?xml version="1.0" encoding="UTF-8" standalone="no"?>
<!-- Created with Inkscape (http://www.inkscape.org/) -->

<svg
   width="13.778798mm"
   height="7.8215919mm"
   viewBox="0 0 13.778798 7.8215919"
   version="1.1"
   id="svg1"
   xml:space="preserve"
   xmlns:inkscape="http://www.inkscape.org/namespaces/inkscape"
   xmlns:sodipodi="http://sodipodi.sourceforge.net/DTD/sodipodi-0.dtd"
   xmlns="http://www.w3.org/2000/svg"
   xmlns:svg="http://www.w3.org/2000/svg"><sodipodi:namedview
     id="namedview1"
     pagecolor="#ffffff"
     bordercolor="#000000"
     borderopacity="0.25"
     inkscape:showpageshadow="2"
     inkscape:pageopacity="0.0"
     inkscape:pagecheckerboard="0"
     inkscape:deskcolor="#d1d1d1"
     inkscape:document-units="mm" /><defs
     id="defs1" /><g
     inkscape:label="Layer 1"
     inkscape:groupmode="layer"
     id="layer1"
     transform="translate(-195.62177,-1.2718618)"><g
       id="g183"
       transform="translate(115.62177,0.18265679)"><rect
         style="fill:none;fill-opacity:1;fill-rule:evenodd;stroke:none;stroke-width:2.17841;stroke-linejoin:round;stroke-opacity:1"
         id="rect174-3-2-4-7-9-8-2"
         width="7.821588"
         height="7.8215919"
         x="82.978607"
         y="1.089205" /><g
         id="g78"
         transform="translate(-31.654881,-175.52377)"><polygon
           fill="#f1b31c"
           points="19.0485,38.4662 18.0524,30.452 10.8857,26.7292 18.1999,23.3052 19.5258,15.3389 25.0424,21.2371 33.0285,20.0364 29.1238,27.1056 32.7335,34.3298 24.8037,32.8007 "
           id="polygon1"
           transform="matrix(0.26458333,0,0,0.26458333,109.01928,173.4058)" /><polygon
           fill="#f1b31c"
           points="52.876,38.4662 53.8721,30.452 61.0388,26.7292 53.7246,23.3052 52.3987,15.3389 46.8821,21.2371 38.896,20.0364 42.8007,27.1056 39.191,34.3298 47.1208,32.8007 "
           id="polygon2"
           transform="matrix(0.26458333,0,0,0.26458333,109.01928,173.4058)" /><polygon
           fill="none"
           stroke="#000000"
           stroke-linecap="round"
           stroke-linejoin="round"
           stroke-miterlimit="10"
           stroke-width="2"
           points="19.124,38.4662 18.1279,30.452 10.9612,26.7292 18.2754,23.3052 19.6013,15.3389 25.1179,21.2371 33.104,20.0364 29.1993,27.1056 32.809,34.3298 24.8792,32.8007 "
           id="polygon9"
           transform="matrix(0.26458333,0,0,0.26458333,109.01928,173.4058)" /><polygon
           fill="none"
           stroke="#000000"
           stroke-linecap="round"
           stroke-linejoin="round"
           stroke-miterlimit="10"
           stroke-width="2"
           points="52.876,38.4662 53.8721,30.452 61.0388,26.7292 53.7246,23.3052 52.3987,15.3389 46.8821,21.2371 38.896,20.0364 42.8007,27.1056 39.191,34.3298 47.1208,32.8007 "
           id="polygon10"
           transform="matrix(0.26458333,0,0,0.26458333,109.01928,173.4058)" /></g></g></g></svg>
