<?xml version="1.0" encoding="UTF-8" standalone="no"?>
<!-- Created with Inkscape (http://www.inkscape.org/) -->

<svg
   width="8.4904861mm"
   height="7.8610396mm"
   viewBox="0 0 8.4904861 7.8610396"
   version="1.1"
   id="svg1"
   xml:space="preserve"
   xmlns:inkscape="http://www.inkscape.org/namespaces/inkscape"
   xmlns:sodipodi="http://sodipodi.sourceforge.net/DTD/sodipodi-0.dtd"
   xmlns="http://www.w3.org/2000/svg"
   xmlns:svg="http://www.w3.org/2000/svg"><sodipodi:namedview
     id="namedview1"
     pagecolor="#ffffff"
     bordercolor="#000000"
     borderopacity="0.25"
     inkscape:showpageshadow="2"
     inkscape:pageopacity="0.0"
     inkscape:pagecheckerboard="0"
     inkscape:deskcolor="#d1d1d1"
     inkscape:document-units="mm" /><defs
     id="defs1" /><g
     inkscape:label="Layer 1"
     inkscape:groupmode="layer"
     id="layer1"
     transform="translate(-168.10443,-38.505543)"><g
       id="g203"
       transform="translate(127.34967,37.455786)"><rect
         style="fill:none;fill-opacity:1;fill-rule:evenodd;stroke:none;stroke-width:2.17841;stroke-linejoin:round;stroke-opacity:1"
         id="rect174-3-2-4-7-9-8-0-3-4-8-1-7-8-2-9-0-6-1-2-8-0-6-4-4-2"
         width="7.8215871"
         height="7.8215909"
         x="41.089207"
         y="1.089205" /><g
         id="g154"
         transform="translate(-75.763935,-173.38878)"><circle
           cx="122.97189"
           cy="178.23796"
           r="1.7197917"
           fill="#ffffff"
           id="circle1-6"
           style="stroke-width:0.264583" /><circle
           cx="118.55599"
           cy="178.23796"
           r="1.7197917"
           fill="#ffffff"
           id="circle2-5"
           style="stroke-width:0.264583" /><circle
           cx="118.50307"
           cy="178.23796"
           r="1.7197917"
           fill="none"
           stroke="#000000"
           stroke-miterlimit="10"
           stroke-width="0.529167"
           id="circle4" /><circle
           cx="123.0248"
           cy="178.23796"
           r="1.7197917"
           fill="none"
           stroke="#000000"
           stroke-miterlimit="10"
           stroke-width="0.529167"
           id="circle5" /><path
           fill-rule="evenodd"
           d="m 118.49514,176.75364 c -0.67217,0.004 -1.21497,0.54994 -1.21497,1.22211 0,0.67495 0.54716,1.22211 1.22211,1.22211 0.67495,0 1.22211,-0.54716 1.22211,-1.22211 0,-0.67495 -0.54716,-1.22211 -1.22211,-1.22211 -0.002,0 -0.005,0 -0.007,0 z m -0.38444,0.48366 c 0.29226,0 0.52917,0.23691 0.52917,0.52917 0,0.29226 -0.23691,0.52916 -0.52917,0.52916 -0.29226,0 -0.52917,-0.2369 -0.52917,-0.52916 0,-0.29226 0.23691,-0.52917 0.52917,-0.52917 z"
           id="path5-9"
           style="stroke-width:0.264583" /><path
           fill-rule="evenodd"
           d="m 123.01687,176.75364 c -0.67218,0.004 -1.21497,0.54994 -1.21497,1.22211 0,0.67495 0.54716,1.22211 1.22211,1.22211 0.67495,0 1.22211,-0.54716 1.22211,-1.22211 0,-0.67495 -0.54716,-1.22211 -1.22211,-1.22211 -0.002,0 -0.005,0 -0.007,0 z m -0.38444,0.48366 c 0.29226,0 0.52917,0.23691 0.52917,0.52917 0,0.29226 -0.23691,0.52916 -0.52917,0.52916 -0.29226,0 -0.52917,-0.2369 -0.52917,-0.52916 0,-0.29226 0.23691,-0.52917 0.52917,-0.52917 z"
           id="path6-34"
           style="stroke-width:0.264583" /><path
           fill="none"
           stroke="#000000"
           stroke-linecap="round"
           stroke-linejoin="round"
           stroke-width="0.529167"
           d="m 122.1411,174.70312 c 0.31353,0.64056 0.79375,1.32292 2.38125,1.05833"
           id="path7-73" /><path
           fill="none"
           stroke="#000000"
           stroke-linecap="round"
           stroke-linejoin="round"
           stroke-width="0.529167"
           d="m 119.40266,174.70312 c -0.31353,0.64056 -0.79375,1.32292 -2.38125,1.05833"
           id="path8-34" /></g></g></g></svg>
