<?xml version="1.0" encoding="UTF-8" standalone="no"?>
<!-- Created with Inkscape (http://www.inkscape.org/) -->

<svg
   width="8.5354567mm"
   height="7.8215919mm"
   viewBox="0 0 8.5354567 7.8215919"
   version="1.1"
   id="svg1"
   xml:space="preserve"
   xmlns:inkscape="http://www.inkscape.org/namespaces/inkscape"
   xmlns:sodipodi="http://sodipodi.sourceforge.net/DTD/sodipodi-0.dtd"
   xmlns="http://www.w3.org/2000/svg"
   xmlns:svg="http://www.w3.org/2000/svg"><sodipodi:namedview
     id="namedview1"
     pagecolor="#ffffff"
     bordercolor="#000000"
     borderopacity="0.25"
     inkscape:showpageshadow="2"
     inkscape:pageopacity="0.0"
     inkscape:pagecheckerboard="0"
     inkscape:deskcolor="#d1d1d1"
     inkscape:document-units="mm" /><defs
     id="defs1" /><g
     inkscape:label="Layer 1"
     inkscape:groupmode="layer"
     id="layer1"
     transform="translate(-153.35794,-18.396361)"><g
       id="g192"
       transform="translate(112.62567,17.307156)"><rect
         style="fill:none;fill-opacity:1;fill-rule:evenodd;stroke:none;stroke-width:2.17841;stroke-linejoin:round;stroke-opacity:1"
         id="rect174-3-2-4-7-9-8-0-3-4-8-1-7-8-2-9"
         width="7.821588"
         height="7.8215919"
         x="41.089207"
         y="1.089205" /><g
         id="g113"
         transform="translate(-69.071834,-165.94355)"><path
           d="m 112.48169,170.62732 c -3.7e-4,0.43841 -0.35613,0.79348 -0.79428,0.79322 -0.43815,-2.7e-4 -0.79348,-0.35613 -0.79322,-0.79428 2.6e-4,-0.43815 0.35613,-0.79349 0.79428,-0.79322 0.43841,5.3e-4 0.79322,0.35613 0.79322,0.79428"
           id="path6-4"
           style="stroke-width:0.264583" /><path
           d="m 117.24419,170.63261 c -3.7e-4,0.43841 -0.35613,0.79348 -0.79428,0.79322 -0.43815,-2.7e-4 -0.79348,-0.35613 -0.79322,-0.79428 2.6e-4,-0.43815 0.35613,-0.79349 0.79428,-0.79322 0.43841,5e-4 0.79322,0.35613 0.79322,0.79428"
           id="path7-14"
           style="stroke-width:0.264583" /><path
           fill="none"
           stroke="#000000"
           stroke-linecap="round"
           stroke-linejoin="round"
           stroke-width="0.529167"
           d="m 110.06869,169.29646 c 0.4535,0.13166 0.9398,0.0895 1.36393,-0.11824 0.3548,-0.18127 0.64267,-0.47096 0.82153,-0.82709"
           id="path8-46" /><path
           fill="none"
           stroke="#000000"
           stroke-linecap="round"
           stroke-linejoin="round"
           stroke-width="0.529167"
           d="m 118.07498,169.29646 c -0.45349,0.13166 -0.9398,0.0895 -1.36393,-0.11824 -0.3548,-0.18127 -0.64267,-0.47096 -0.82153,-0.82709"
           id="path9-17" /></g></g></g></svg>
