<?xml version="1.0" encoding="UTF-8" standalone="no"?>
<!-- Created with Inkscape (http://www.inkscape.org/) -->

<svg
   width="8.8300667mm"
   height="7.9363694mm"
   viewBox="0 0 8.8300667 7.9363694"
   version="1.1"
   id="svg1"
   xml:space="preserve"
   xmlns:inkscape="http://www.inkscape.org/namespaces/inkscape"
   xmlns:sodipodi="http://sodipodi.sourceforge.net/DTD/sodipodi-0.dtd"
   xmlns="http://www.w3.org/2000/svg"
   xmlns:svg="http://www.w3.org/2000/svg"><sodipodi:namedview
     id="namedview1"
     pagecolor="#ffffff"
     bordercolor="#000000"
     borderopacity="0.25"
     inkscape:showpageshadow="2"
     inkscape:pageopacity="0.0"
     inkscape:pagecheckerboard="0"
     inkscape:deskcolor="#d1d1d1"
     inkscape:document-units="mm" /><defs
     id="defs1" /><g
     inkscape:label="Layer 1"
     inkscape:groupmode="layer"
     id="layer1"
     transform="translate(-137.93464,-38.430213)"><g
       id="g200"
       transform="translate(127.34967,37.455786)"><rect
         style="fill:none;fill-opacity:1;fill-rule:evenodd;stroke:none;stroke-width:2.17841;stroke-linejoin:round;stroke-opacity:1"
         id="rect174-3-2-4-7-9-8-0-3-4-8-1-7-8-2-9-0-6-1-2-8-0-6"
         width="7.8215871"
         height="7.8215909"
         x="11.089205"
         y="1.089205" /><g
         id="g155"
         transform="translate(-108.11071,-185.26221)"><path
           fill="none"
           stroke="#000000"
           stroke-linecap="round"
           stroke-linejoin="round"
           stroke-width="0.529167"
           d="m 121.35894,186.5383 a 2.2330833,2.2330833 0 0 0 -2.39868,1.19012"
           id="path5-09" /><path
           fill="none"
           stroke="#000000"
           stroke-linecap="round"
           stroke-linejoin="round"
           stroke-width="0.529167"
           d="m 127.26116,187.72842 a 2.2330833,2.2330833 0 0 0 -2.39868,-1.19012"
           id="path6-5" /><path
           d="m 121.5232,189.26068 a 0.79374999,0.79374999 0 1 1 -0.79375,-0.79375 0.79404103,0.79404103 0 0 1 0.79375,0.79375"
           id="path8-87"
           style="stroke-width:0.264583" /><path
           d="m 126.2857,189.26068 a 0.79374999,0.79374999 0 1 1 -0.79375,-0.79375 0.79404103,0.79404103 0 0 1 0.79375,0.79375"
           id="path9-1"
           style="stroke-width:0.264583" /></g></g></g></svg>
