<?xml version="1.0" encoding="UTF-8" standalone="no"?>
<!-- Created with Inkscape (http://www.inkscape.org/) -->

<svg
   width="7.821588mm"
   height="7.8215919mm"
   viewBox="0 0 7.821588 7.8215919"
   version="1.1"
   id="svg1"
   xml:space="preserve"
   xmlns:inkscape="http://www.inkscape.org/namespaces/inkscape"
   xmlns:sodipodi="http://sodipodi.sourceforge.net/DTD/sodipodi-0.dtd"
   xmlns="http://www.w3.org/2000/svg"
   xmlns:svg="http://www.w3.org/2000/svg"><sodipodi:namedview
     id="namedview1"
     pagecolor="#ffffff"
     bordercolor="#000000"
     borderopacity="0.25"
     inkscape:showpageshadow="2"
     inkscape:pageopacity="0.0"
     inkscape:pagecheckerboard="0"
     inkscape:deskcolor="#d1d1d1"
     inkscape:document-units="mm" /><defs
     id="defs1" /><g
     inkscape:label="Layer 1"
     inkscape:groupmode="layer"
     id="layer1"
     transform="translate(-166.29804,-11.421835)"><g
       id="g188"
       transform="translate(115.20883,10.33263)"><rect
         style="fill:none;fill-opacity:1;fill-rule:evenodd;stroke:none;stroke-width:2.17841;stroke-linejoin:round;stroke-opacity:1"
         id="rect174-3-2-4-7-9-8-0-3-4-8-1"
         width="7.821588"
         height="7.8215919"
         x="51.089207"
         y="1.089205" /><g
         id="g101"
         transform="translate(-41.808118,-180.55097)"><g
           id="g100"><path
             fill="none"
             stroke="#000000"
             stroke-linecap="round"
             stroke-linejoin="round"
             stroke-miterlimit="10"
             stroke-width="0.529167"
             d="m 93.387267,183.48605 c 0.109326,-0.091 0.594148,-0.474 1.298866,-0.43297 0.571712,0.0333 0.955146,0.32631 1.082384,0.43297"
             id="path2-27" /><path
             fill="none"
             stroke="#000000"
             stroke-linecap="round"
             stroke-linejoin="round"
             stroke-miterlimit="10"
             stroke-width="0.529167"
             d="m 100.22897,183.3146 c -0.10933,0.091 -0.59415,0.474 -1.298867,0.43296 -0.571712,-0.0333 -0.955146,-0.32631 -1.082384,-0.43296"
             id="path3-54" /><path
             d="m 95.220618,185.40608 c 0,0.43836 -0.355812,0.79375 -0.79375,0.79375 -0.437965,0 -0.79375,-0.35542 -0.79375,-0.79375 0,-0.43794 0.355785,-0.79375 0.79375,-0.79375 0.437938,0 0.79375,0.35581 0.79375,0.79375"
             id="path4-85"
             style="stroke-width:0.264583" /><path
             d="m 99.983118,185.40608 c 0,0.43836 -0.355785,0.79375 -0.79375,0.79375 -0.437965,0 -0.79375,-0.35542 -0.79375,-0.79375 0,-0.43794 0.355785,-0.79375 0.79375,-0.79375 0.437965,0 0.79375,0.35581 0.79375,0.79375"
             id="path5-4"
             style="stroke-width:0.264583" /></g></g></g></g></svg>
