<?xml version="1.0" encoding="UTF-8" standalone="no"?>
<!-- Created with Inkscape (http://www.inkscape.org/) -->

<svg
   width="8.539957mm"
   height="7.8215919mm"
   viewBox="0 0 8.539957 7.8215919"
   version="1.1"
   id="svg1"
   xml:space="preserve"
   xmlns:inkscape="http://www.inkscape.org/namespaces/inkscape"
   xmlns:sodipodi="http://sodipodi.sourceforge.net/DTD/sodipodi-0.dtd"
   xmlns="http://www.w3.org/2000/svg"
   xmlns:svg="http://www.w3.org/2000/svg"><sodipodi:namedview
     id="namedview1"
     pagecolor="#ffffff"
     bordercolor="#000000"
     borderopacity="0.25"
     inkscape:showpageshadow="2"
     inkscape:pageopacity="0.0"
     inkscape:pagecheckerboard="0"
     inkscape:deskcolor="#d1d1d1"
     inkscape:document-units="mm" /><defs
     id="defs1" /><g
     inkscape:label="Layer 1"
     inkscape:groupmode="layer"
     id="layer1"
     transform="translate(-143.35569,-18.396361)"><g
       id="g191"
       transform="translate(112.62567,17.307156)"><rect
         style="fill:none;fill-opacity:1;fill-rule:evenodd;stroke:none;stroke-width:2.17841;stroke-linejoin:round;stroke-opacity:1"
         id="rect174-3-2-4-7-9-8-0-3-4-8-1-7-8-2"
         width="7.821588"
         height="7.8215919"
         x="31.089205"
         y="1.089205" /><g
         id="g110"
         transform="translate(-72.218846,-190.00308)"><path
           fill="none"
           stroke="#000000"
           stroke-linecap="round"
           stroke-linejoin="round"
           stroke-miterlimit="10"
           stroke-width="0.529167"
           d="m 104.90826,191.74427 c -0.0631,0.40841 -0.2749,0.77859 -0.5952,1.03952 -0.29276,0.2947 -0.68498,0.46895 -1.09961,0.48985"
           id="path1-99" /><path
           fill="none"
           stroke="#000000"
           stroke-linecap="round"
           stroke-linejoin="round"
           stroke-miterlimit="10"
           stroke-width="0.529167"
           d="m 109.52942,191.74427 c 0.0631,0.40841 0.2749,0.77859 0.59521,1.03952 0.29276,0.2947 0.68498,0.46895 1.09961,0.48985"
           id="path2-33" /><path
           d="m 105.63134,194.55772 c 0,0.43836 -0.35581,0.79375 -0.79375,0.79375 -0.43796,0 -0.79375,-0.35541 -0.79375,-0.79375 0,-0.43794 0.35579,-0.79375 0.79375,-0.79375 0.43794,0 0.79375,0.35581 0.79375,0.79375"
           id="path6-07"
           style="stroke-width:0.264583" /><path
           d="m 110.39384,194.55772 c 0,0.43836 -0.35578,0.79375 -0.79375,0.79375 -0.43796,0 -0.79375,-0.35541 -0.79375,-0.79375 0,-0.43794 0.35579,-0.79375 0.79375,-0.79375 0.43797,0 0.79375,0.35581 0.79375,0.79375"
           id="path7-8"
           style="stroke-width:0.264583" /></g></g></g></svg>
