<?xml version="1.0" encoding="UTF-8" standalone="no"?>
<!-- Created with Inkscape (http://www.inkscape.org/) -->

<svg
   width="8.363327mm"
   height="7.8215919mm"
   viewBox="0 0 8.363327 7.8215919"
   version="1.1"
   id="svg1"
   xml:space="preserve"
   xmlns:inkscape="http://www.inkscape.org/namespaces/inkscape"
   xmlns:sodipodi="http://sodipodi.sourceforge.net/DTD/sodipodi-0.dtd"
   xmlns="http://www.w3.org/2000/svg"
   xmlns:svg="http://www.w3.org/2000/svg"><sodipodi:namedview
     id="namedview1"
     pagecolor="#ffffff"
     bordercolor="#000000"
     borderopacity="0.25"
     inkscape:showpageshadow="2"
     inkscape:pageopacity="0.0"
     inkscape:pagecheckerboard="0"
     inkscape:deskcolor="#d1d1d1"
     inkscape:document-units="mm" /><defs
     id="defs1" /><g
     inkscape:label="Layer 1"
     inkscape:groupmode="layer"
     id="layer1"
     transform="translate(-133.44401,-18.396361)"><g
       id="g190"
       transform="translate(112.62567,17.307156)"><rect
         style="fill:none;fill-opacity:1;fill-rule:evenodd;stroke:none;stroke-width:2.17841;stroke-linejoin:round;stroke-opacity:1"
         id="rect174-3-2-4-7-9-8-0-3-4-8-1-7-8"
         width="7.821588"
         height="7.8215919"
         x="21.089205"
         y="1.089205" /><g
         id="g108"
         transform="translate(-79.414071,-191.96483)"><path
           fill="none"
           stroke="#000000"
           stroke-linecap="round"
           stroke-linejoin="round"
           stroke-miterlimit="10"
           stroke-width="0.529167"
           d="m 100.49699,195.60066 c 0.22516,-0.34653 0.57029,-0.59709 0.96949,-0.70353 0.38793,-0.14854 0.81709,-0.14642 1.20375,0.005"
           id="path3-7" /><path
           fill="none"
           stroke="#000000"
           stroke-linecap="round"
           stroke-linejoin="round"
           stroke-miterlimit="10"
           stroke-width="0.529167"
           d="m 108.33115,195.33486 c -0.35817,-0.76483 -1.17806,-1.20201 -2.01279,-1.07315"
           id="path4-28" /><path
           d="m 102.89166,196.58575 c 0,0.43836 -0.35581,0.79375 -0.79375,0.79375 -0.43797,0 -0.79375,-0.35541 -0.79375,-0.79375 0,-0.43794 0.35578,-0.79375 0.79375,-0.79375 0.43794,0 0.79375,0.35581 0.79375,0.79375"
           id="path6-29"
           style="stroke-width:0.264583" /><path
           d="m 107.65416,196.58575 c 0,0.43836 -0.35579,0.79375 -0.79375,0.79375 -0.43797,0 -0.79375,-0.35541 -0.79375,-0.79375 0,-0.43794 0.35578,-0.79375 0.79375,-0.79375 0.43796,0 0.79375,0.35581 0.79375,0.79375"
           id="path7-3"
           style="stroke-width:0.264583" /></g></g></g></svg>
