<?xml version="1.0" encoding="UTF-8" standalone="no"?>
<!-- Created with Inkscape (http://www.inkscape.org/) -->

<svg
   width="9.2429571mm"
   height="7.8215919mm"
   viewBox="0 0 9.2429571 7.8215919"
   version="1.1"
   id="svg1"
   xml:space="preserve"
   xmlns:inkscape="http://www.inkscape.org/namespaces/inkscape"
   xmlns:sodipodi="http://sodipodi.sourceforge.net/DTD/sodipodi-0.dtd"
   xmlns="http://www.w3.org/2000/svg"
   xmlns:svg="http://www.w3.org/2000/svg"><sodipodi:namedview
     id="namedview1"
     pagecolor="#ffffff"
     bordercolor="#000000"
     borderopacity="0.25"
     inkscape:showpageshadow="2"
     inkscape:pageopacity="0.0"
     inkscape:pagecheckerboard="0"
     inkscape:deskcolor="#d1d1d1"
     inkscape:document-units="mm" /><defs
     id="defs1" /><g
     inkscape:label="Layer 1"
     inkscape:groupmode="layer"
     id="layer1"
     transform="translate(-150.82798,-27.041549)"><g
       id="g196"
       transform="translate(130.44946,25.952344)"><rect
         style="fill:none;fill-opacity:1;fill-rule:evenodd;stroke:none;stroke-width:2.17841;stroke-linejoin:round;stroke-opacity:1"
         id="rect174-3-2-4-7-9-8-0-3-4-8-1-7-8-2-9-0-6-1-2"
         width="7.821588"
         height="7.8215919"
         x="21.089205"
         y="1.089205" /><g
         id="g123"
         transform="translate(-83.440606,-187.61971)"><g
           id="g122"><path
             fill="none"
             stroke="#000000"
             stroke-linecap="round"
             stroke-miterlimit="10"
             stroke-width="0.529167"
             d="m 109.89251,192.37894 a 1.4523773,1.4523773 0 1 1 2.90475,0"
             id="path3-0" /><path
             fill="none"
             stroke="#000000"
             stroke-linecap="round"
             stroke-miterlimit="10"
             stroke-width="0.529167"
             d="m 110.86088,192.37894 a 0.48419,0.48419 0 0 1 0.96838,0"
             id="path4-21" /><path
             fill="none"
             stroke="#000000"
             stroke-linecap="round"
             stroke-miterlimit="10"
             stroke-width="0.529167"
             d="m 109.89251,192.37894 a 1.9354006,1.9354006 0 0 0 1.93429,1.93651 h 0.002"
             id="path5-59" /><path
             fill="none"
             stroke="#000000"
             stroke-linecap="round"
             stroke-miterlimit="10"
             stroke-width="0.529167"
             d="m 110.86088,192.37894 a 0.96837719,0.96837719 0 0 0 1.93649,0.032 q 2.6e-4,-0.0159 0,-0.032"
             id="path6-90" /><path
             fill="none"
             stroke="#000000"
             stroke-linecap="round"
             stroke-miterlimit="10"
             stroke-width="0.529167"
             d="m 104.08371,192.37894 a 1.45238,1.45238 0 0 1 2.90476,0"
             id="path7-04" /><path
             fill="none"
             stroke="#000000"
             stroke-linecap="round"
             stroke-miterlimit="10"
             stroke-width="0.529167"
             d="m 105.05196,192.37894 a 0.48418749,0.48418749 0 0 1 0.96837,0"
             id="path8-93" /><path
             fill="none"
             stroke="#000000"
             stroke-linecap="round"
             stroke-miterlimit="10"
             stroke-width="0.529167"
             d="m 104.08371,192.37894 a 1.9354006,1.9354006 0 0 0 1.93429,1.93651 h 0.002"
             id="path9-14" /><path
             fill="none"
             stroke="#000000"
             stroke-linecap="round"
             stroke-miterlimit="10"
             stroke-width="0.529167"
             d="m 105.05196,192.37894 a 0.96837502,0.96837502 0 1 0 1.93651,0.0304 q 2.4e-4,-0.0152 0,-0.0304"
             id="path10-9" /></g></g></g></g></svg>
