<?xml version="1.0" encoding="UTF-8" standalone="no"?>
<!-- Created with Inkscape (http://www.inkscape.org/) -->

<svg
   width="20mm"
   height="20mm"
   viewBox="0 0 20 20"
   version="1.1"
   id="svg1"
   xml:space="preserve"
   xmlns:inkscape="http://www.inkscape.org/namespaces/inkscape"
   xmlns:sodipodi="http://sodipodi.sourceforge.net/DTD/sodipodi-0.dtd"
   xmlns="http://www.w3.org/2000/svg"
   xmlns:svg="http://www.w3.org/2000/svg"><sodipodi:namedview
     id="namedview1"
     pagecolor="#ffffff"
     bordercolor="#000000"
     borderopacity="0.25"
     inkscape:showpageshadow="2"
     inkscape:pageopacity="0.0"
     inkscape:pagecheckerboard="0"
     inkscape:deskcolor="#d1d1d1"
     inkscape:document-units="mm"
     inkscape:lockguides="false" /><defs
     id="defs1" /><g
     inkscape:label="Layer 1"
     inkscape:groupmode="layer"
     id="layer1"
     transform="translate(-32.603321,-4.291513)"><g
       id="g212"
       transform="translate(12.603321,-15.708487)"><rect
         style="fill:none;fill-opacity:1;fill-rule:evenodd;stroke:none;stroke-width:3.41002;stroke-linejoin:round;stroke-opacity:1"
         id="rect205-7-8-5"
         width="20"
         height="20"
         x="20"
         y="20" /><g
         id="g71"
         transform="translate(-77.950177,-153.47894)"><path
           fill="#fcea2b"
           d="m 106.04352,189.77694 a 3.3806341,3.3806341 0 0 1 -1.12784,-0.19328 l -0.17462,-0.0618 a 3.7895741,3.7895741 0 0 0 -1.52781,-0.20902 l -0.10777,0.007 a 0.67733332,0.67733332 0 0 1 -0.72268,-0.6754 0.71090895,0.71090895 0 0 1 0.68831,-0.71289 l 1.81925,-0.0695 c 0.0716,-2.4e-4 0.0892,-0.0196 0.0951,-0.0258 a 0.15769166,0.15769166 0 0 0 0.0287,-0.1124 0.13467291,0.13467291 0 0 0 -0.15166,-0.12144 h -3.66855 a 0.67603687,0.67603687 0 0 1 -0.67387,-0.67646 0.89085207,0.89085207 0 0 1 0.26723,-0.64879 0.91162186,0.91162186 0 0 1 0.64103,-0.25423 l 1.67281,0.0527 a 0.05611812,0.05611812 0 0 0 0.0419,-0.023 0.13660437,0.13660437 0 0 0 0.0346,-0.0948 l -0.002,-0.0271 c 0,-0.0411 -0.0816,-0.083 -0.16203,-0.083 h -1.29839 a 0.60801249,0.60801249 0 0 1 -0.60719,-0.60746 0.77194832,0.77194832 0 0 1 0.73716,-0.77203 l 0.5607,-0.0261 a 0.49667583,0.49667583 0 0 0 0.43175,-0.69556 l -0.038,-0.0871 a 3.8039145,3.8039145 0 0 1 -0.2385,-2.0792 c 0.56164,-2.79027 2.91505,-4.5961 5.7172,-4.38391 2.95717,0.2204 5.202,2.55979 5.00409,5.21441 a 4.371287,4.371287 0 0 1 -0.2553,1.18158 l -0.13615,0.42862 a 0.19817291,0.19817291 0 0 0 0.15811,0.25604 l 0.72322,0.11292 a 0.77356228,0.77356228 0 0 1 0.65759,0.76817 0.60436124,0.60436124 0 0 1 -0.01,0.10877 0.9979554,0.9979554 0 0 1 0.94773,0.99555 1.0837862,1.0837862 0 0 1 -0.9865,1.08336 l -0.68601,0.0643 a 5.8567637,5.8567637 0 0 1 -1.19425,-0.0106 l -0.36171,-0.0403 a 0.52673249,0.52673249 0 0 0 -0.58499,0.52324 0.18123958,0.18123958 0 0 0 0.16796,0.18034 l 0.20023,0.0142 a 0.81809166,0.81809166 0 0 1 0.75835,0.81338 0.71048562,0.71048562 0 0 1 -0.70977,0.7098 h -0.79219 a 3.0540589,3.0540589 0 0 1 -0.62788,-0.0654 l -0.41884,-0.0881 a 4.6546029,4.6546029 0 0 0 -1.77559,-0.0279 l -1.72418,0.30618 a 3.3707916,3.3707916 0 0 1 -0.58939,0.0517 z"
           id="path1-16"
           style="stroke-width:0.264583" /><path
           fill="none"
           stroke="#000000"
           stroke-linecap="round"
           stroke-miterlimit="10"
           stroke-width="0.529167"
           d="m 111.17948,189.34892 h 0.79214 a 0.45823187,0.45823187 0 0 0 0.45823,-0.45823 v 0 a 0.5643827,0.5643827 0 0 0 -0.52478,-0.56298 l -0.19984,-0.014 a 0.43209104,0.43209104 0 0 1 -0.40179,-0.43103 v 0 a 0.77787499,0.77787499 0 0 1 0.86423,-0.77311 l 0.36171,0.0404 a 5.5940853,5.5940853 0 0 0 1.14279,0.0101 l 0.68601,-0.0643 a 0.83682416,0.83682416 0 0 0 0.75862,-0.83307 v 0 a 0.74517249,0.74517249 0 0 0 -0.74518,-0.7452 h -1.27134"
           id="path2-66" /><path
           fill="none"
           stroke="#000000"
           stroke-linecap="round"
           stroke-miterlimit="10"
           stroke-width="0.529167"
           d="m 113.47638,185.51612 h 0.34496 a 0.3576902,0.3576902 0 0 0 0.35767,-0.35767 v 0 a 0.52620333,0.52620333 0 0 0 -0.44495,-0.51988 l -0.72311,-0.11297 a 0.44960645,0.44960645 0 0 1 -0.35898,-0.58074 l 0.13988,-0.43894 a 4.1225258,4.1225258 0 0 0 0.24043,-1.11358 c 0.18785,-2.52063 -1.94855,-4.73461 -4.77187,-4.94506 -2.82331,-0.21045 -4.95342,1.70503 -5.45243,4.1829 a 3.5748912,3.5748912 0 0 0 0.22225,1.92881 l 0.038,0.0867 a 0.74813582,0.74813582 0 0 1 -0.65039,1.04775 l -0.56066,0.0261 a 0.52165249,0.52165249 0 0 0 -0.49741,0.52123 v 0 a 0.35589104,0.35589104 0 0 0 0.35586,0.35576 h 1.29837 a 0.37872458,0.37872458 0 0 1 0.41349,0.33441 v 0 a 0.35594395,0.35594395 0 0 1 -0.3329,0.39621 l -1.65942,-0.0526 a 0.63873062,0.63873062 0 0 0 -0.65161,0.63857 v 0.0132 a 0.42272479,0.42272479 0 0 0 0.42238,0.42497 h 3.65654 a 0.37965062,0.37965062 0 0 1 0.40201,0.34973 v 0 A 0.3551502,0.3551502 0 0 1 104.9,188.11377 l -1.82002,0.0695 a 0.4618302,0.4618302 0 0 0 -0.44566,0.46157 v 0 a 0.42552937,0.42552937 0 0 0 0.45429,0.42455 l 0.10763,-0.007 a 4.0606133,4.0606133 0 0 1 1.62872,0.22315 l 0.17463,0.0617 a 3.127666,3.127666 0 0 0 1.58951,0.13092 l 1.72416,-0.30621 a 4.9181808,4.9181808 0 0 1 1.871,0.0294"
           id="path3-37" /></g></g></g></svg>
