<?xml version="1.0" encoding="UTF-8" standalone="no"?>
<!-- Created with Inkscape (http://www.inkscape.org/) -->

<svg
   width="20mm"
   height="20mm"
   viewBox="0 0 20 20"
   version="1.1"
   id="svg1"
   xml:space="preserve"
   xmlns:inkscape="http://www.inkscape.org/namespaces/inkscape"
   xmlns:sodipodi="http://sodipodi.sourceforge.net/DTD/sodipodi-0.dtd"
   xmlns="http://www.w3.org/2000/svg"
   xmlns:svg="http://www.w3.org/2000/svg"><sodipodi:namedview
     id="namedview1"
     pagecolor="#ffffff"
     bordercolor="#000000"
     borderopacity="0.25"
     inkscape:showpageshadow="2"
     inkscape:pageopacity="0.0"
     inkscape:pagecheckerboard="0"
     inkscape:deskcolor="#d1d1d1"
     inkscape:document-units="mm"
     inkscape:lockguides="false" /><defs
     id="defs1" /><g
     inkscape:label="Layer 1"
     inkscape:groupmode="layer"
     id="layer1"
     transform="translate(-91.784133,-7.6715867)"><g
       id="g209"
       transform="translate(71.784133,7.6715867)"><rect
         style="fill:none;fill-opacity:1;fill-rule:evenodd;stroke:none;stroke-width:3.41002;stroke-linejoin:round;stroke-opacity:1"
         id="rect205-7"
         width="20"
         height="20"
         x="20"
         y="4.4408921e-16" /><g
         id="g64"
         transform="translate(-79.226852,-184.42043)"><circle
           cx="109.22855"
           cy="194.43819"
           r="6.3499999"
           fill="#fcea2b"
           id="circle1-55"
           style="stroke-width:0.264583" /><path
           fill="#92d3f5"
           d="m 114.0572,192.36804 a 1.1224154,1.1224154 0 0 1 -1.12295,-1.12255 c 0,-1.11194 1.11416,-2.23888 1.12528,-2.25012 0.0408,0.0457 1.12032,1.14374 1.12032,2.24999 a 1.1220979,1.1220979 0 0 1 -1.12265,1.12268 z"
           id="path1-05"
           style="stroke-width:0.264583" /><path
           fill="none"
           stroke="#000000"
           stroke-linejoin="round"
           stroke-width="0.529167"
           d="m 114.0572,192.36804 a 1.1224154,1.1224154 0 0 1 -1.12295,-1.12255 c 0,-1.11194 1.11416,-2.23888 1.12528,-2.25012 0.0408,0.0457 1.12032,1.14374 1.12032,2.24999 a 1.1220979,1.1220979 0 0 1 -1.12265,1.12268 z"
           id="path4-47" /><path
           fill="none"
           stroke="#000000"
           stroke-linecap="round"
           stroke-linejoin="round"
           stroke-width="0.529167"
           d="m 112.42855,189.26109 a 6.074357,6.074357 0 1 0 2.75149,3.90141"
           id="path5-01" /></g></g></g></svg>
