<?xml version="1.0" encoding="UTF-8" standalone="no"?>
<!-- Created with Inkscape (http://www.inkscape.org/) -->

<svg
   width="20mm"
   height="20mm"
   viewBox="0 0 20 20"
   version="1.1"
   id="svg1"
   xml:space="preserve"
   xmlns:inkscape="http://www.inkscape.org/namespaces/inkscape"
   xmlns:sodipodi="http://sodipodi.sourceforge.net/DTD/sodipodi-0.dtd"
   xmlns="http://www.w3.org/2000/svg"
   xmlns:svg="http://www.w3.org/2000/svg"><sodipodi:namedview
     id="namedview1"
     pagecolor="#ffffff"
     bordercolor="#000000"
     borderopacity="0.25"
     inkscape:showpageshadow="2"
     inkscape:pageopacity="0.0"
     inkscape:pagecheckerboard="0"
     inkscape:deskcolor="#d1d1d1"
     inkscape:document-units="mm"
     inkscape:lockguides="false" /><defs
     id="defs1" /><g
     inkscape:label="Layer 1"
     inkscape:groupmode="layer"
     id="layer1"
     transform="translate(-56.073801,-3.743542)"><g
       id="g213"
       transform="translate(16.073801,-16.256458)"><rect
         style="fill:none;fill-opacity:1;fill-rule:evenodd;stroke:none;stroke-width:3.41002;stroke-linejoin:round;stroke-opacity:1"
         id="rect205-7-8-5-3"
         width="20"
         height="20"
         x="40"
         y="20" /><g
         id="g76"
         transform="translate(-55.291422,-158.85865)"><g
           id="g75"><circle
             cx="105.32375"
             cy="189.03223"
             r="6.3499999"
             fill="#fcea2b"
             id="circle1-49"
             style="stroke-width:0.264583" /><path
             fill="#ffa7c0"
             d="m 98.793462,188.67768 c -0.0223,0.0462 -0.07787,0.0656 -0.124116,0.0433 -0.01892,-0.009 -0.03418,-0.0244 -0.04331,-0.0433 -0.256726,-0.5329 -0.896832,-0.75676 -1.429703,-0.50004 -0.532897,0.25673 -0.756761,0.89683 -0.500036,1.4297 0.02812,0.0584 0.06146,0.11407 0.09964,0.1664 l 1.913811,2.45396 1.902642,-2.43893 0.0614,-0.0905 c 0.30742,-0.50536 0.14695,-1.16422 -0.35838,-1.47161 -0.50533,-0.3074 -1.164221,-0.14695 -1.471614,0.35837 -0.01831,0.0301 -0.03508,0.061 -0.05032,0.0927 z"
             id="path1-30"
             style="stroke-width:0.264583" /><path
             fill="#ffa7c0"
             d="m 108.58305,181.53393 c -0.0223,0.0462 -0.0779,0.0656 -0.12412,0.0433 -0.0189,-0.009 -0.0342,-0.0244 -0.0433,-0.0433 -0.25673,-0.5329 -0.89683,-0.75676 -1.42971,-0.50004 -0.53287,0.25673 -0.75676,0.89683 -0.50003,1.4297 0.0281,0.0584 0.0615,0.11407 0.0996,0.1664 l 1.91381,2.45396 1.90265,-2.43893 0.0614,-0.0905 c 0.30742,-0.50536 0.14695,-1.16422 -0.35838,-1.47161 -0.50535,-0.30742 -1.16422,-0.14695 -1.47161,0.35837 -0.0183,0.0301 -0.0351,0.061 -0.0503,0.0927 z"
             id="path2-81"
             style="stroke-width:0.264583" /><path
             fill="#ffa7c0"
             d="m 110.69971,193.44018 c -0.0223,0.0462 -0.0779,0.0656 -0.12411,0.0433 -0.0189,-0.009 -0.0342,-0.0244 -0.0433,-0.0433 -0.25672,-0.5329 -0.89683,-0.75676 -1.4297,-0.50004 -0.5329,0.25673 -0.75676,0.89683 -0.50004,1.4297 0.0281,0.0584 0.0615,0.11407 0.0996,0.1664 l 1.91381,2.45396 1.90264,-2.43893 0.0614,-0.0905 c 0.30742,-0.50536 0.14695,-1.16422 -0.35838,-1.47161 -0.50536,-0.30742 -1.16422,-0.14695 -1.47161,0.35837 -0.0183,0.0301 -0.0351,0.061 -0.0503,0.0927 z"
             id="path3-72"
             style="stroke-width:0.264583" /><path
             fill="none"
             stroke="#000000"
             stroke-linecap="round"
             stroke-linejoin="round"
             stroke-width="0.529167"
             d="m 109.56767,192.83312 c -0.59182,2e-5 -1.07154,0.47982 -1.07151,1.07161 0,0.19603 0.0538,0.38833 0.15552,0.55592 l 0.0614,0.0905 1.90265,2.43893 1.91381,-2.45396 c 0.34935,-0.47736 0.24556,-1.14755 -0.2318,-1.4969 -0.47737,-0.34936 -1.14756,-0.24556 -1.49691,0.2318 -0.0389,0.0531 -0.0728,0.10975 -0.10128,0.16912 -0.0223,0.0462 -0.0779,0.0656 -0.12412,0.0433 -0.0189,-0.009 -0.0342,-0.0244 -0.0433,-0.0433 -0.17685,-0.37198 -0.55256,-0.60846 -0.96443,-0.60706 z"
             id="path5-23" /><path
             fill="none"
             stroke="#000000"
             stroke-linecap="round"
             stroke-linejoin="round"
             stroke-width="0.529167"
             d="m 97.661416,188.07062 c -0.59182,2e-5 -1.071536,0.47982 -1.07151,1.07161 0,0.19603 0.05379,0.38833 0.155522,0.55592 l 0.06138,0.0905 1.902646,2.43893 1.913816,-2.45396 c 0.34935,-0.47736 0.24556,-1.14755 -0.2318,-1.4969 -0.477368,-0.34936 -1.147558,-0.24556 -1.496914,0.2318 -0.03889,0.0531 -0.07279,0.10975 -0.101282,0.16909 -0.02231,0.0462 -0.07787,0.0656 -0.124116,0.0433 -0.01892,-0.009 -0.03419,-0.0244 -0.04331,-0.0433 -0.176847,-0.37195 -0.552555,-0.60843 -0.964432,-0.60703 z"
             id="path6-020" /><path
             fill="none"
             stroke="#000000"
             stroke-linecap="round"
             stroke-linejoin="round"
             stroke-width="0.529167"
             d="m 107.451,180.92687 c -0.59182,2e-5 -1.07154,0.47982 -1.07151,1.07161 0,0.19603 0.0538,0.38833 0.15552,0.55592 l 0.0614,0.0905 1.90265,2.43893 1.91381,-2.45396 c 0.34936,-0.47736 0.24556,-1.14755 -0.2318,-1.4969 -0.47736,-0.34936 -1.14755,-0.24556 -1.49691,0.2318 -0.0389,0.0531 -0.0728,0.10975 -0.10128,0.16912 -0.0223,0.0462 -0.0779,0.0656 -0.12412,0.0433 -0.0189,-0.009 -0.0342,-0.0244 -0.0433,-0.0433 -0.17685,-0.37198 -0.55255,-0.60846 -0.96443,-0.60706 z"
             id="path7-15" /><path
             fill="none"
             stroke="#000000"
             stroke-linecap="round"
             stroke-linejoin="round"
             stroke-width="0.529167"
             d="m 107.12493,194.84665 c -0.5692,0.17613 -1.17412,0.27099 -1.80118,0.27099 -2.10055,0 -3.95253,-1.06426 -5.04613,-2.68301"
             id="path8-27" /><path
             fill="none"
             stroke="#000000"
             stroke-linecap="round"
             stroke-linejoin="round"
             stroke-width="0.529167"
             d="m 110.01955,185.16134 c 0.86812,1.0519 1.38962,2.40048 1.38962,3.87088 0,0.95343 -0.21926,1.85566 -0.61011,2.65898"
             id="path9-7" /><path
             fill="none"
             stroke="#000000"
             stroke-linecap="round"
             stroke-linejoin="round"
             stroke-width="0.529167"
             d="m 99.69667,186.71111 c 0.91236,-2.20946 3.08814,-3.76431 5.62708,-3.76431"
             id="path10-21" /></g></g></g></g></svg>
