<?xml version="1.0" encoding="UTF-8" standalone="no"?>
<!-- Created with Inkscape (http://www.inkscape.org/) -->

<svg
   width="20mm"
   height="20mm"
   viewBox="0 0 20 20"
   version="1.1"
   id="svg1"
   xml:space="preserve"
   xmlns:inkscape="http://www.inkscape.org/namespaces/inkscape"
   xmlns:sodipodi="http://sodipodi.sourceforge.net/DTD/sodipodi-0.dtd"
   xmlns="http://www.w3.org/2000/svg"
   xmlns:svg="http://www.w3.org/2000/svg"><sodipodi:namedview
     id="namedview1"
     pagecolor="#ffffff"
     bordercolor="#000000"
     borderopacity="0.25"
     inkscape:showpageshadow="2"
     inkscape:pageopacity="0.0"
     inkscape:pagecheckerboard="0"
     inkscape:deskcolor="#d1d1d1"
     inkscape:document-units="mm"
     inkscape:lockguides="false" /><defs
     id="defs1" /><g
     inkscape:label="Layer 1"
     inkscape:groupmode="layer"
     id="layer1"
     transform="translate(1.370849,-17.53321)"><g
       id="g216"
       transform="translate(-21.370849,-22.46679)"><rect
         style="fill:none;fill-opacity:1;fill-rule:evenodd;stroke:none;stroke-width:3.41002;stroke-linejoin:round;stroke-opacity:1"
         id="rect205-7-8-5-1-5"
         width="20"
         height="20"
         x="20"
         y="40" /><g
         id="g98"
         transform="translate(-78.779603,-146.04549)"><path
           fill="#fcea2b"
           d="m 109.00852,189.79166 c -3.36087,0 -6.08542,2.72455 -6.08542,6.08542 0,3.36087 2.72455,6.08541 6.08542,6.08541 3.36087,0 6.08542,-2.72454 6.08542,-6.08541 -4.8e-4,-3.36069 -2.72474,-6.08494 -6.08542,-6.08542 z"
           id="path1-86"
           style="stroke-width:0.264583" /><path
           fill="#fcea2b"
           d="m 101.60019,195.24208 1.74625,-1.66688 c 0.44979,0.34396 0.68791,0.23813 1.24354,0.21167 0.52916,-0.0265 0.87312,-0.60854 1.48166,-0.71438 0.55563,-0.10583 0.87313,-0.39687 0.68792,-0.74083 -0.13324,-0.18195 -0.36309,-0.26553 -0.58208,-0.21167 -0.55563,0.1323 -1.24354,0.37042 -1.71979,0.26459 0,0 2.08989,-1.36845 3.62447,-2.50616 0.0584,-0.0355 0.077,-0.11171 0.0415,-0.17016 -0.0103,-0.017 -0.0246,-0.0312 -0.0415,-0.0415 -0.21167,-0.13229 -0.76697,-0.29842 -1.61364,0.072 l -3.43958,1.79917 c 0,0 -1.38938,1.12488 -2.15668,1.70696 l -0.23873,0.19582 0.78806,1.80139 z"
           id="path2-70"
           style="stroke-width:0.264583" /><path
           fill="none"
           stroke="#000000"
           stroke-miterlimit="10"
           stroke-width="0.529167"
           d="m 108.37352,189.84458 c 0.1932,-0.022 0.38767,-0.0309 0.58208,-0.0265 3.36087,0 6.08542,2.72455 6.08542,6.08542 0,3.36087 -2.72455,6.08541 -6.08542,6.08541 -3.36087,0 -6.08541,-2.72454 -6.08541,-6.08541 v 0 c 0.002,-0.6286 0.10014,-1.25318 0.29104,-1.85209"
           id="path3-08" /><path
           fill="none"
           stroke="#000000"
           stroke-linecap="round"
           stroke-linejoin="round"
           stroke-width="0.529167"
           d="m 101.67956,195.1627 1.93146,-1.56104 c 0.44979,0.34396 0.47625,0.29104 1.03187,0.26458 0.66146,0 1.11125,-0.71437 1.87855,-0.79375 0.71437,-0.13229 0.55562,-0.84666 0.10583,-0.89958 l -1.93146,0.23813 c 0,0 2.27542,-1.45521 3.81,-2.61938 0,0 -0.26871,-0.25839 -0.7674,-0.32943 -0.29921,-0.0426 -0.68119,-0.0178 -1.1376,0.17068 l -2.72521,1.48167 c -0.50755,0.26781 -0.98631,0.58698 -1.42875,0.9525 -0.60854,0.47625 -1.11125,0.87312 -1.5875,1.24354"
           id="path7-48" /></g></g></g></svg>
