<?xml version="1.0" encoding="UTF-8" standalone="no"?>
<!-- Created with Inkscape (http://www.inkscape.org/) -->

<svg
   width="20mm"
   height="20mm"
   viewBox="0 0 20 20"
   version="1.1"
   id="svg1"
   xml:space="preserve"
   xmlns:inkscape="http://www.inkscape.org/namespaces/inkscape"
   xmlns:sodipodi="http://sodipodi.sourceforge.net/DTD/sodipodi-0.dtd"
   xmlns="http://www.w3.org/2000/svg"
   xmlns:svg="http://www.w3.org/2000/svg"><sodipodi:namedview
     id="namedview1"
     pagecolor="#ffffff"
     bordercolor="#000000"
     borderopacity="0.25"
     inkscape:showpageshadow="2"
     inkscape:pageopacity="0.0"
     inkscape:pagecheckerboard="0"
     inkscape:deskcolor="#d1d1d1"
     inkscape:document-units="mm"
     inkscape:lockguides="false" /><defs
     id="defs1" /><g
     inkscape:label="Layer 1"
     inkscape:groupmode="layer"
     id="layer1"
     transform="translate(-2.1918819,-2.00738)"><g
       id="g215"
       transform="translate(2.1918819,-37.99262)"><rect
         style="fill:none;fill-opacity:1;fill-rule:evenodd;stroke:none;stroke-width:3.41002;stroke-linejoin:round;stroke-opacity:1"
         id="rect205-7-8-5-1"
         width="20"
         height="20"
         x="3.7599551e-15"
         y="40" /><g
         id="g80"
         transform="translate(-97.550216,-142.42896)"><g
           id="g79"><circle
             cx="107.50423"
             cy="192.42896"
             r="6.3499999"
             fill="#fcea2b"
             id="circle1-34"
             style="stroke-width:0.264583" /><path
             fill="#d22f27"
             d="m 112.0057,194.67006 c -0.50538,-0.15089 -1.03921,0.13761 -1.1901,0.64296 -0.0502,0.16833 -0.0534,0.34658 -0.009,0.51541 l 0.0294,0.0932 1.00463,2.57215 2.26398,-1.61031 c 0.16132,-0.12205 0.27866,-0.29125 0.33735,-0.48776 0.15089,-0.50536 -0.13756,-1.03936 -0.6431,-1.19028 -0.35404,-0.1057 -0.72961,-0.001 -0.97996,0.27297 -0.0214,0.0235 -0.0544,0.0327 -0.085,0.0236 -0.0305,-0.009 -0.053,-0.035 -0.0582,-0.0664 -0.059,-0.36642 -0.3157,-0.65982 -0.6699,-0.76557 z"
             id="path1-48"
             style="stroke-width:0.264583" /><path
             fill="none"
             stroke="#000000"
             stroke-linecap="round"
             stroke-linejoin="round"
             stroke-miterlimit="10"
             stroke-width="0.529167"
             d="m 113.42344,193.84744 c 0.10867,-0.45511 0.16621,-0.93009 0.16621,-1.41848 0,-3.36103 -2.72462,-6.08542 -6.08541,-6.08542 -3.36103,0 -6.08542,2.72439 -6.08542,6.08542 0,3.36079 2.72439,6.08542 6.08542,6.08542 0.95795,0 1.86422,-0.22138 2.67044,-0.61574"
             id="path5-10" /><path
             fill="none"
             stroke="#000000"
             stroke-linecap="round"
             stroke-linejoin="round"
             stroke-miterlimit="10"
             stroke-width="0.529167"
             d="m 112.0057,194.67006 c -0.50538,-0.15089 -1.03921,0.13761 -1.1901,0.64296 -0.0502,0.16833 -0.0534,0.34658 -0.009,0.51541 l 0.0294,0.0932 1.00463,2.57215 2.26398,-1.61031 c 0.16132,-0.12205 0.27866,-0.29125 0.33735,-0.48776 0.15089,-0.50536 -0.13756,-1.03936 -0.6431,-1.19028 -0.35404,-0.1057 -0.72961,-0.001 -0.97996,0.27297 -0.0214,0.0235 -0.0544,0.0327 -0.085,0.0236 -0.0305,-0.009 -0.053,-0.035 -0.0582,-0.0664 -0.059,-0.36642 -0.3157,-0.65982 -0.6699,-0.76557 z"
             id="path7-94" /></g></g></g></g></svg>
