<?xml version="1.0" encoding="UTF-8" standalone="no"?>
<!-- Created with Inkscape (http://www.inkscape.org/) -->

<svg
   width="20mm"
   height="20mm"
   viewBox="0 0 20 20"
   version="1.1"
   id="svg1"
   xml:space="preserve"
   xmlns:inkscape="http://www.inkscape.org/namespaces/inkscape"
   xmlns:sodipodi="http://sodipodi.sourceforge.net/DTD/sodipodi-0.dtd"
   xmlns="http://www.w3.org/2000/svg"
   xmlns:svg="http://www.w3.org/2000/svg"><sodipodi:namedview
     id="namedview1"
     pagecolor="#ffffff"
     bordercolor="#000000"
     borderopacity="0.25"
     inkscape:showpageshadow="2"
     inkscape:pageopacity="0.0"
     inkscape:pagecheckerboard="0"
     inkscape:deskcolor="#d1d1d1"
     inkscape:document-units="mm"
     inkscape:lockguides="false" /><defs
     id="defs1" /><g
     inkscape:label="Layer 1"
     inkscape:groupmode="layer"
     id="layer1"
     transform="translate(-9.498155,-51.140221)"><g
       id="g221"
       transform="translate(9.498155,-28.859779)"><rect
         style="fill:none;fill-opacity:1;fill-rule:evenodd;stroke:none;stroke-width:3.41002;stroke-linejoin:round;stroke-opacity:1"
         id="rect205-7-8-5-1-5-3-9-1-8-03-9-3"
         width="20"
         height="20"
         x="3.7599551e-15"
         y="80" /><g
         id="g109"
         transform="translate(-94.662358,-107.90867)"><path
           fill="#fcea2b"
           d="m 104.47916,191.55867 c -3.50142,0 -6.350002,2.84858 -6.350002,6.35 0,3.50142 2.848582,6.35 6.350002,6.35 3.50141,0 6.35,-2.84861 6.35,-6.35 2e-5,-3.50142 -2.84859,-6.35 -6.35,-6.35 z"
           id="path1-89"
           style="stroke-width:0.264583" /><path
           fill="#fcea2b"
           d="m 104.85746,200.06825 c 0,0 2.31148,-0.0214 3.19484,0.15592 0.88337,0.1773 1.78123,0.54682 2.41861,0.25133 0.30062,-0.13936 0.43593,-0.43402 0.45567,-0.71663 0.0268,-0.28201 -0.0584,-0.59488 -0.33205,-0.78163 -0.58037,-0.39595 -1.52776,-0.16497 -2.42824,-0.13483 -0.90049,0.0301 -3.17723,-0.36978 -3.17723,-0.36978"
           id="path2-51"
           style="stroke-width:0.264583" /><path
           fill="none"
           stroke="#000000"
           stroke-linecap="round"
           stroke-linejoin="round"
           stroke-miterlimit="10"
           stroke-width="0.529167"
           d="m 110.55489,197.56447 c -0.17843,-3.20087 -2.83051,-5.74122 -6.07579,-5.74122 -3.361,0 -6.085359,2.72436 -6.085359,6.08537 0,3.36076 2.724359,6.08536 6.085359,6.08536 1.87333,0 3.54899,-0.84656 4.6653,-2.17794"
           id="path5-96" /><path
           fill="none"
           stroke="#000000"
           stroke-linecap="round"
           stroke-linejoin="round"
           stroke-miterlimit="10"
           stroke-width="0.529167"
           d="m 104.85746,200.06825 c 0,0 2.31148,-0.0214 3.19484,0.15592 0.88337,0.1773 1.78123,0.54682 2.41861,0.25133 0.30062,-0.13936 0.43593,-0.43402 0.45567,-0.71663 0.0268,-0.28201 -0.0584,-0.59488 -0.33205,-0.78163 -0.58037,-0.39595 -1.52776,-0.16497 -2.42824,-0.13483 -0.90049,0.0301 -3.17723,-0.36978 -3.17723,-0.36978"
           id="path9-22" /></g></g></g></svg>
