<?xml version="1.0" encoding="UTF-8" standalone="no"?>
<!-- Created with Inkscape (http://www.inkscape.org/) -->

<svg
   width="20mm"
   height="20mm"
   viewBox="0 0 20 20"
   version="1.1"
   id="svg1"
   xml:space="preserve"
   xmlns:inkscape="http://www.inkscape.org/namespaces/inkscape"
   xmlns:sodipodi="http://sodipodi.sourceforge.net/DTD/sodipodi-0.dtd"
   xmlns="http://www.w3.org/2000/svg"
   xmlns:svg="http://www.w3.org/2000/svg"><sodipodi:namedview
     id="namedview1"
     pagecolor="#ffffff"
     bordercolor="#000000"
     borderopacity="0.25"
     inkscape:showpageshadow="2"
     inkscape:pageopacity="0.0"
     inkscape:pagecheckerboard="0"
     inkscape:deskcolor="#d1d1d1"
     inkscape:document-units="mm"
     inkscape:lockguides="false" /><defs
     id="defs1" /><g
     inkscape:label="Layer 1"
     inkscape:groupmode="layer"
     id="layer1"
     transform="translate(-30.220204,-71.318587)"><g
       id="g223"
       transform="translate(-9.6808118,-8.5848709)"><rect
         style="fill:none;fill-opacity:1;fill-rule:evenodd;stroke:none;stroke-width:3.41002;stroke-linejoin:round;stroke-opacity:1"
         id="rect205-7-8-5-1-5-3-9-1-3"
         width="20"
         height="20"
         x="39.901016"
         y="79.903458" /><g
         id="g159"
         transform="translate(-63.894195,-94.526212)"><path
           fill="#fcea2b"
           d="m 113.87282,178.43064 c -3.46075,0 -6.42673,2.84162 -6.42673,6.33412 0,3.4925 2.73315,6.36588 6.42673,6.36588 3.46075,0 6.27327,-2.87338 6.27327,-6.36588 0,-3.4925 -2.81517,-6.33412 -6.27327,-6.33412 z"
           id="path1-13"
           style="stroke-width:0.264583" /><path
           fill="#fcea2b"
           d="m 117.51878,192.54616 c 0.26117,-1.06283 0.44466,-0.84428 0.52228,-1.57612 -0.12247,-0.35454 -0.20399,-0.90567 -0.19687,-1.57321 0.006,-0.52335 0.0358,-0.70591 0.28548,-1.82537 0.32835,-1.4732 0.11325,-1.82932 0.30031,-1.8407 0.33575,-0.0203 0.82285,1.09723 1.04536,2.0656 0.23638,1.02817 -0.38568,2.53259 -0.38568,2.53259 l 0.40759,1.47876"
           id="path5-7"
           style="stroke-width:0.264583" /><path
           fill="#fcea2b"
           d="m 110.05753,192.44562 c -0.26117,-1.06283 -0.31237,-0.71199 -0.39,-1.44383 0.12248,-0.35454 0.204,-0.90567 0.19688,-1.57321 -0.006,-0.52335 0.16258,-0.70591 -0.0871,-1.82537 -0.32835,-1.4732 -0.31168,-1.82932 -0.49874,-1.8407 -0.33576,-0.0203 -0.889,1.09723 -1.11151,2.0656 -0.23638,1.02817 0.51797,2.53259 0.51797,2.53259 l -0.40759,1.41261"
           id="path6-2"
           style="stroke-width:0.264583" /><path
           fill="none"
           stroke="#000000"
           stroke-linecap="round"
           stroke-linejoin="round"
           stroke-width="0.529167"
           d="m 116.79382,190.0776 c -0.88477,0.50165 -1.90765,0.78819 -2.99773,0.78819 -1.05675,0 -2.05026,-0.26934 -2.91571,-0.74295"
           id="path13" /><path
           fill="none"
           stroke="#000000"
           stroke-linecap="round"
           stroke-linejoin="round"
           stroke-width="0.529167"
           d="m 107.76624,185.59291 c -0.0285,-0.3646 -0.0648,-0.43339 -0.056,-0.81306 0.078,-3.36021 2.72521,-6.08542 6.08542,-6.08542 3.36021,0 6.08542,2.72521 6.08542,6.08542 0,0.28389 -0.0195,0.56329 -0.0571,0.83687"
           id="path14-8" /><path
           fill="none"
           stroke="#000000"
           stroke-linecap="round"
           stroke-linejoin="round"
           stroke-width="0.529167"
           d="m 117.44999,192.27364 c 0.31961,-1.04669 0.24159,-0.56991 0.35956,-1.29619 -0.1026,-0.3609 -0.21957,-0.91917 -0.17536,-1.58539 0.0347,-0.52202 0.63976,-0.84878 0.75168,-2.05237 0.11046,-1.07871 0.1134,-1.55998 0.30083,-1.56078 0.33629,-0.002 0.82682,1.14485 0.99536,2.12408 0.17897,1.03981 -0.44106,2.4847 -0.44106,2.4847 l 0.36116,1.19989"
           id="path15-0" /><path
           fill="none"
           stroke="#000000"
           stroke-linecap="round"
           stroke-linejoin="round"
           stroke-width="0.529167"
           d="m 110.24274,192.27364 c -0.31962,-1.04669 -0.2416,-0.56991 -0.35957,-1.29619 0.1026,-0.3609 0.21957,-0.91917 0.17536,-1.58539 -0.0347,-0.52202 -0.63976,-0.84878 -0.75168,-2.05237 -0.11046,-1.07871 -0.1134,-1.55998 -0.30083,-1.56078 -0.33629,-0.002 -0.82682,1.14485 -0.99536,2.12408 -0.17897,1.03981 0.44106,2.4847 0.44106,2.4847 l -0.36116,1.19989"
           id="path16" /></g></g></g></svg>
