<?xml version="1.0" encoding="UTF-8" standalone="no"?>
<!-- Created with Inkscape (http://www.inkscape.org/) -->

<svg
   width="20mm"
   height="20mm"
   viewBox="0 0 20 20"
   version="1.1"
   id="svg1"
   xml:space="preserve"
   xmlns:inkscape="http://www.inkscape.org/namespaces/inkscape"
   xmlns:sodipodi="http://sodipodi.sourceforge.net/DTD/sodipodi-0.dtd"
   xmlns="http://www.w3.org/2000/svg"
   xmlns:svg="http://www.w3.org/2000/svg"><sodipodi:namedview
     id="namedview1"
     pagecolor="#ffffff"
     bordercolor="#000000"
     borderopacity="0.25"
     inkscape:showpageshadow="2"
     inkscape:pageopacity="0.0"
     inkscape:pagecheckerboard="0"
     inkscape:deskcolor="#d1d1d1"
     inkscape:document-units="mm"
     inkscape:lockguides="false" /><defs
     id="defs1" /><g
     inkscape:label="Layer 1"
     inkscape:groupmode="layer"
     id="layer1"
     transform="translate(-50.905141,-64.266951)"><g
       id="g224"
       transform="translate(-9.6808118,-16.073801)"><rect
         style="fill:none;fill-opacity:1;fill-rule:evenodd;stroke:none;stroke-width:3.41002;stroke-linejoin:round;stroke-opacity:1"
         id="rect205-7-8-5-1-5-3-9-1-3-9-6"
         width="20"
         height="20"
         x="60.585953"
         y="80.340752" /><g
         id="g142"
         transform="translate(-36.816257,-98.214815)"><g
           id="g141"><circle
             cx="107.40221"
             cy="188.81259"
             r="6.3499999"
             fill="#fcea2b"
             id="circle1-438"
             style="stroke-width:0.264583" /><path
             fill="#6a462f"
             d="m 107.40221,184.92727 c 2.4519,-0.0341 4.05726,-0.65027 4.05726,-0.65027 0.68426,0.61251 1.22907,1.37758 1.58101,2.24174 0,0 2.80321,-2.21239 0.60733,-3.99659 0,0 -1.06016,-1.0211 -2.65544,0.43556 0,0 -1.0282,0.96973 -3.59016,0.98055 -2.56196,-0.0108 -3.59015,-0.98055 -3.59015,-0.98055 -1.59528,-1.45666 -2.65544,-0.43556 -2.65544,-0.43556 -2.195884,1.7842 0.60732,3.99659 0.60732,3.99659 0.35193,-0.86416 0.89676,-1.62923 1.58102,-2.24174 0,0 1.60536,0.61622 4.05725,0.65027 z"
             id="path1-975"
             style="stroke-width:0.264583" /><path
             fill="#6a462f"
             d="m 107.40221,183.93826 c 1.60124,-0.007 2.58419,-0.3778 3.1106,-0.66286 0,0 -0.43235,-0.15087 -0.36787,-0.73597 0.0192,-0.17399 0.0937,-0.43066 0.18804,-0.67442 0.16909,-0.43683 0.0513,-0.78552 -1.08845,-1.35858 0,0 -0.55099,-0.27536 -0.74617,-0.33706 -0.28655,-0.0906 -0.77626,-0.16412 -1.09615,0.21646 -0.31988,-0.38058 -0.80959,-0.30702 -1.09611,-0.21646 -0.19519,0.0617 -0.74618,0.33706 -0.74618,0.33706 -1.13972,0.57306 -1.25754,0.92175 -1.08844,1.35858 0.0944,0.24376 0.16885,0.50043 0.18804,0.67442 0.0645,0.5851 -0.36788,0.73597 -0.36788,0.73597 0.52639,0.28506 1.50934,0.65608 3.11057,0.66286 z"
             id="path2-36"
             style="stroke-width:0.264583" /><path
             fill="none"
             stroke="#000000"
             stroke-linecap="round"
             stroke-linejoin="round"
             stroke-miterlimit="10"
             stroke-width="0.529167"
             d="m 113.33899,187.46984 c 0.0973,0.43198 0.14864,0.88138 0.14864,1.34276 0,3.36087 -2.72455,6.08541 -6.08542,6.08541 -3.36087,0 -6.08541,-2.72454 -6.08541,-6.08541 0,-0.46138 0.0513,-0.91078 0.14864,-1.34276"
             id="path5-58" /><path
             fill="none"
             stroke="#000000"
             stroke-linecap="round"
             stroke-linejoin="round"
             stroke-miterlimit="10"
             stroke-width="0.529167"
             d="m 107.40221,184.92727 c 2.4519,-0.0341 4.05726,-0.65027 4.05726,-0.65027 0.68426,0.61251 1.22907,1.37758 1.58101,2.24174 0,0 2.80321,-2.21239 0.60733,-3.99659 0,0 -1.06016,-1.0211 -2.65544,0.43556 0,0 -1.0282,0.96973 -3.59016,0.98055 -2.56196,-0.0108 -3.59015,-0.98055 -3.59015,-0.98055 -1.59528,-1.45666 -2.65544,-0.43556 -2.65544,-0.43556 -2.195884,1.7842 0.60732,3.99659 0.60732,3.99659 0.35193,-0.86416 0.89676,-1.62923 1.58102,-2.24174 0,0 1.60536,0.61622 4.05725,0.65027 z"
             id="path6-21" /><path
             fill="none"
             stroke="#000000"
             stroke-linecap="round"
             stroke-linejoin="round"
             stroke-miterlimit="10"
             stroke-width="0.529167"
             d="m 107.40221,183.93826 c 1.60124,-0.007 2.58419,-0.3778 3.1106,-0.66286 0,0 -0.43235,-0.15087 -0.36787,-0.73597 0.0192,-0.17399 0.0937,-0.43066 0.18804,-0.67442 0.16909,-0.43683 0.0513,-0.78552 -1.08845,-1.35858 0,0 -0.55099,-0.27536 -0.74617,-0.33706 -0.28655,-0.0906 -0.77626,-0.16412 -1.09615,0.21646 -0.31988,-0.38058 -0.80959,-0.30702 -1.09611,-0.21646 -0.19519,0.0617 -0.74618,0.33706 -0.74618,0.33706 -1.13972,0.57306 -1.25754,0.92175 -1.08844,1.35858 0.0944,0.24376 0.16885,0.50043 0.18804,0.67442 0.0645,0.5851 -0.36788,0.73597 -0.36788,0.73597 0.52639,0.28506 1.50934,0.65608 3.11057,0.66286 z"
             id="path7-5" /><circle
             cx="107.40221"
             cy="188.81259"
             r="6.3499999"
             fill="#fcea2b"
             id="circle127"
             style="stroke-width:0.264583" /><path
             fill="#6a462f"
             d="m 107.40221,184.92727 c 2.4519,-0.0341 4.05726,-0.65027 4.05726,-0.65027 0.68426,0.61251 1.22907,1.37758 1.58101,2.24174 0,0 2.80321,-2.21239 0.60733,-3.99659 0,0 -1.06016,-1.0211 -2.65544,0.43556 0,0 -1.0282,0.96973 -3.59016,0.98055 -2.56196,-0.0108 -3.59015,-0.98055 -3.59015,-0.98055 -1.59528,-1.45666 -2.65544,-0.43556 -2.65544,-0.43556 -2.195884,1.7842 0.60732,3.99659 0.60732,3.99659 0.35193,-0.86416 0.89676,-1.62923 1.58102,-2.24174 0,0 1.60536,0.61622 4.05725,0.65027 z"
             id="path127"
             style="stroke-width:0.264583" /><path
             fill="#6a462f"
             d="m 107.40221,183.93826 c 1.60124,-0.007 2.58419,-0.3778 3.1106,-0.66286 0,0 -0.43235,-0.15087 -0.36787,-0.73597 0.0192,-0.17399 0.0937,-0.43066 0.18804,-0.67442 0.16909,-0.43683 0.0513,-0.78552 -1.08845,-1.35858 0,0 -0.55099,-0.27536 -0.74617,-0.33706 -0.28655,-0.0906 -0.77626,-0.16412 -1.09615,0.21646 -0.31988,-0.38058 -0.80959,-0.30702 -1.09611,-0.21646 -0.19519,0.0617 -0.74618,0.33706 -0.74618,0.33706 -1.13972,0.57306 -1.25754,0.92175 -1.08844,1.35858 0.0944,0.24376 0.16885,0.50043 0.18804,0.67442 0.0645,0.5851 -0.36788,0.73597 -0.36788,0.73597 0.52639,0.28506 1.50934,0.65608 3.11057,0.66286 z"
             id="path128"
             style="stroke-width:0.264583" /><path
             fill="none"
             stroke="#000000"
             stroke-linecap="round"
             stroke-linejoin="round"
             stroke-miterlimit="10"
             stroke-width="0.529167"
             d="m 113.33899,187.46984 c 0.0973,0.43198 0.14864,0.88138 0.14864,1.34276 0,3.36087 -2.72455,6.08541 -6.08542,6.08541 -3.36087,0 -6.08541,-2.72454 -6.08541,-6.08541 0,-0.46138 0.0513,-0.91078 0.14864,-1.34276"
             id="path129" /><path
             fill="none"
             stroke="#000000"
             stroke-linecap="round"
             stroke-linejoin="round"
             stroke-miterlimit="10"
             stroke-width="0.529167"
             d="m 107.40221,184.92727 c 2.4519,-0.0341 4.05726,-0.65027 4.05726,-0.65027 0.68426,0.61251 1.22907,1.37758 1.58101,2.24174 0,0 2.80321,-2.21239 0.60733,-3.99659 0,0 -1.06016,-1.0211 -2.65544,0.43556 0,0 -1.0282,0.96973 -3.59016,0.98055 -2.56196,-0.0108 -3.59015,-0.98055 -3.59015,-0.98055 -1.59528,-1.45666 -2.65544,-0.43556 -2.65544,-0.43556 -2.195884,1.7842 0.60732,3.99659 0.60732,3.99659 0.35193,-0.86416 0.89676,-1.62923 1.58102,-2.24174 0,0 1.60536,0.61622 4.05725,0.65027 z"
             id="path130" /><path
             fill="none"
             stroke="#000000"
             stroke-linecap="round"
             stroke-linejoin="round"
             stroke-miterlimit="10"
             stroke-width="0.529167"
             d="m 107.40221,183.93826 c 1.60124,-0.007 2.58419,-0.3778 3.1106,-0.66286 0,0 -0.43235,-0.15087 -0.36787,-0.73597 0.0192,-0.17399 0.0937,-0.43066 0.18804,-0.67442 0.16909,-0.43683 0.0513,-0.78552 -1.08845,-1.35858 0,0 -0.55099,-0.27536 -0.74617,-0.33706 -0.28655,-0.0906 -0.77626,-0.16412 -1.09615,0.21646 -0.31988,-0.38058 -0.80959,-0.30702 -1.09611,-0.21646 -0.19519,0.0617 -0.74618,0.33706 -0.74618,0.33706 -1.13972,0.57306 -1.25754,0.92175 -1.08844,1.35858 0.0944,0.24376 0.16885,0.50043 0.18804,0.67442 0.0645,0.5851 -0.36788,0.73597 -0.36788,0.73597 0.52639,0.28506 1.50934,0.65608 3.11057,0.66286 z"
             id="path131" /><circle
             cx="107.40221"
             cy="188.81259"
             r="6.3499999"
             fill="#fcea2b"
             id="circle131"
             style="stroke-width:0.264583" /><path
             fill="#6a462f"
             d="m 107.40221,184.92727 c 2.4519,-0.0341 4.05726,-0.65027 4.05726,-0.65027 0.68426,0.61251 1.22907,1.37758 1.58101,2.24174 0,0 2.80321,-2.21239 0.60733,-3.99659 0,0 -1.06016,-1.0211 -2.65544,0.43556 0,0 -1.0282,0.96973 -3.59016,0.98055 -2.56196,-0.0108 -3.59015,-0.98055 -3.59015,-0.98055 -1.59528,-1.45666 -2.65544,-0.43556 -2.65544,-0.43556 -2.195884,1.7842 0.60732,3.99659 0.60732,3.99659 0.35193,-0.86416 0.89676,-1.62923 1.58102,-2.24174 0,0 1.60536,0.61622 4.05725,0.65027 z"
             id="path132"
             style="stroke-width:0.264583" /><path
             fill="#6a462f"
             d="m 107.40221,183.93826 c 1.60124,-0.007 2.58419,-0.3778 3.1106,-0.66286 0,0 -0.43235,-0.15087 -0.36787,-0.73597 0.0192,-0.17399 0.0937,-0.43066 0.18804,-0.67442 0.16909,-0.43683 0.0513,-0.78552 -1.08845,-1.35858 0,0 -0.55099,-0.27536 -0.74617,-0.33706 -0.28655,-0.0906 -0.77626,-0.16412 -1.09615,0.21646 -0.31988,-0.38058 -0.80959,-0.30702 -1.09611,-0.21646 -0.19519,0.0617 -0.74618,0.33706 -0.74618,0.33706 -1.13972,0.57306 -1.25754,0.92175 -1.08844,1.35858 0.0944,0.24376 0.16885,0.50043 0.18804,0.67442 0.0645,0.5851 -0.36788,0.73597 -0.36788,0.73597 0.52639,0.28506 1.50934,0.65608 3.11057,0.66286 z"
             id="path133"
             style="stroke-width:0.264583" /><path
             fill="none"
             stroke="#000000"
             stroke-linecap="round"
             stroke-linejoin="round"
             stroke-miterlimit="10"
             stroke-width="0.529167"
             d="m 113.33899,187.46984 c 0.0973,0.43198 0.14864,0.88138 0.14864,1.34276 0,3.36087 -2.72455,6.08541 -6.08542,6.08541 -3.36087,0 -6.08541,-2.72454 -6.08541,-6.08541 0,-0.46138 0.0513,-0.91078 0.14864,-1.34276"
             id="path134" /><path
             fill="none"
             stroke="#000000"
             stroke-linecap="round"
             stroke-linejoin="round"
             stroke-miterlimit="10"
             stroke-width="0.529167"
             d="m 107.40221,184.92727 c 2.4519,-0.0341 4.05726,-0.65027 4.05726,-0.65027 0.68426,0.61251 1.22907,1.37758 1.58101,2.24174 0,0 2.80321,-2.21239 0.60733,-3.99659 0,0 -1.06016,-1.0211 -2.65544,0.43556 0,0 -1.0282,0.96973 -3.59016,0.98055 -2.56196,-0.0108 -3.59015,-0.98055 -3.59015,-0.98055 -1.59528,-1.45666 -2.65544,-0.43556 -2.65544,-0.43556 -2.195884,1.7842 0.60732,3.99659 0.60732,3.99659 0.35193,-0.86416 0.89676,-1.62923 1.58102,-2.24174 0,0 1.60536,0.61622 4.05725,0.65027 z"
             id="path135" /><path
             fill="none"
             stroke="#000000"
             stroke-linecap="round"
             stroke-linejoin="round"
             stroke-miterlimit="10"
             stroke-width="0.529167"
             d="m 107.40221,183.93826 c 1.60124,-0.007 2.58419,-0.3778 3.1106,-0.66286 0,0 -0.43235,-0.15087 -0.36787,-0.73597 0.0192,-0.17399 0.0937,-0.43066 0.18804,-0.67442 0.16909,-0.43683 0.0513,-0.78552 -1.08845,-1.35858 0,0 -0.55099,-0.27536 -0.74617,-0.33706 -0.28655,-0.0906 -0.77626,-0.16412 -1.09615,0.21646 -0.31988,-0.38058 -0.80959,-0.30702 -1.09611,-0.21646 -0.19519,0.0617 -0.74618,0.33706 -0.74618,0.33706 -1.13972,0.57306 -1.25754,0.92175 -1.08844,1.35858 0.0944,0.24376 0.16885,0.50043 0.18804,0.67442 0.0645,0.5851 -0.36788,0.73597 -0.36788,0.73597 0.52639,0.28506 1.50934,0.65608 3.11057,0.66286 z"
             id="path136" /><circle
             cx="107.40221"
             cy="188.81259"
             r="6.3499999"
             fill="#fcea2b"
             id="circle136"
             style="stroke-width:0.264583" /><path
             fill="#6a462f"
             d="m 107.40221,184.92727 c 2.4519,-0.0341 4.05726,-0.65027 4.05726,-0.65027 0.68426,0.61251 1.22907,1.37758 1.58101,2.24174 0,0 2.80321,-2.21239 0.60733,-3.99659 0,0 -1.06016,-1.0211 -2.65544,0.43556 0,0 -1.0282,0.96973 -3.59016,0.98055 -2.56196,-0.0108 -3.59015,-0.98055 -3.59015,-0.98055 -1.59528,-1.45666 -2.65544,-0.43556 -2.65544,-0.43556 -2.195884,1.7842 0.60732,3.99659 0.60732,3.99659 0.35193,-0.86416 0.89676,-1.62923 1.58102,-2.24174 0,0 1.60536,0.61622 4.05725,0.65027 z"
             id="path137"
             style="stroke-width:0.264583" /><path
             fill="#6a462f"
             d="m 107.40221,183.93826 c 1.60124,-0.007 2.58419,-0.3778 3.1106,-0.66286 0,0 -0.43235,-0.15087 -0.36787,-0.73597 0.0192,-0.17399 0.0937,-0.43066 0.18804,-0.67442 0.16909,-0.43683 0.0513,-0.78552 -1.08845,-1.35858 0,0 -0.55099,-0.27536 -0.74617,-0.33706 -0.28655,-0.0906 -0.77626,-0.16412 -1.09615,0.21646 -0.31988,-0.38058 -0.80959,-0.30702 -1.09611,-0.21646 -0.19519,0.0617 -0.74618,0.33706 -0.74618,0.33706 -1.13972,0.57306 -1.25754,0.92175 -1.08844,1.35858 0.0944,0.24376 0.16885,0.50043 0.18804,0.67442 0.0645,0.5851 -0.36788,0.73597 -0.36788,0.73597 0.52639,0.28506 1.50934,0.65608 3.11057,0.66286 z"
             id="path138"
             style="stroke-width:0.264583" /><path
             fill="none"
             stroke="#000000"
             stroke-linecap="round"
             stroke-linejoin="round"
             stroke-miterlimit="10"
             stroke-width="0.529167"
             d="m 113.33899,187.46984 c 0.0973,0.43198 0.14864,0.88138 0.14864,1.34276 0,3.36087 -2.72455,6.08541 -6.08542,6.08541 -3.36087,0 -6.08541,-2.72454 -6.08541,-6.08541 0,-0.46138 0.0513,-0.91078 0.14864,-1.34276"
             id="path139" /><path
             fill="none"
             stroke="#000000"
             stroke-linecap="round"
             stroke-linejoin="round"
             stroke-miterlimit="10"
             stroke-width="0.529167"
             d="m 107.40221,184.92727 c 2.4519,-0.0341 4.05726,-0.65027 4.05726,-0.65027 0.68426,0.61251 1.22907,1.37758 1.58101,2.24174 0,0 2.80321,-2.21239 0.60733,-3.99659 0,0 -1.06016,-1.0211 -2.65544,0.43556 0,0 -1.0282,0.96973 -3.59016,0.98055 -2.56196,-0.0108 -3.59015,-0.98055 -3.59015,-0.98055 -1.59528,-1.45666 -2.65544,-0.43556 -2.65544,-0.43556 -2.195884,1.7842 0.60732,3.99659 0.60732,3.99659 0.35193,-0.86416 0.89676,-1.62923 1.58102,-2.24174 0,0 1.60536,0.61622 4.05725,0.65027 z"
             id="path140" /><path
             fill="none"
             stroke="#000000"
             stroke-linecap="round"
             stroke-linejoin="round"
             stroke-miterlimit="10"
             stroke-width="0.529167"
             d="m 107.40221,183.93826 c 1.60124,-0.007 2.58419,-0.3778 3.1106,-0.66286 0,0 -0.43235,-0.15087 -0.36787,-0.73597 0.0192,-0.17399 0.0937,-0.43066 0.18804,-0.67442 0.16909,-0.43683 0.0513,-0.78552 -1.08845,-1.35858 0,0 -0.55099,-0.27536 -0.74617,-0.33706 -0.28655,-0.0906 -0.77626,-0.16412 -1.09615,0.21646 -0.31988,-0.38058 -0.80959,-0.30702 -1.09611,-0.21646 -0.19519,0.0617 -0.74618,0.33706 -0.74618,0.33706 -1.13972,0.57306 -1.25754,0.92175 -1.08844,1.35858 0.0944,0.24376 0.16885,0.50043 0.18804,0.67442 0.0645,0.5851 -0.36788,0.73597 -0.36788,0.73597 0.52639,0.28506 1.50934,0.65608 3.11057,0.66286 z"
             id="path141" /></g></g></g></g></svg>
