<?xml version="1.0" encoding="UTF-8" standalone="no"?>
<!-- Created with Inkscape (http://www.inkscape.org/) -->

<svg
   width="20mm"
   height="20mm"
   viewBox="0 0 20 20"
   version="1.1"
   id="svg1"
   xml:space="preserve"
   xmlns:inkscape="http://www.inkscape.org/namespaces/inkscape"
   xmlns:sodipodi="http://sodipodi.sourceforge.net/DTD/sodipodi-0.dtd"
   xmlns="http://www.w3.org/2000/svg"
   xmlns:svg="http://www.w3.org/2000/svg"><sodipodi:namedview
     id="namedview1"
     pagecolor="#ffffff"
     bordercolor="#000000"
     borderopacity="0.25"
     inkscape:showpageshadow="2"
     inkscape:pageopacity="0.0"
     inkscape:pagecheckerboard="0"
     inkscape:deskcolor="#d1d1d1"
     inkscape:document-units="mm"
     inkscape:lockguides="false" /><defs
     id="defs1" /><g
     inkscape:label="Layer 1"
     inkscape:groupmode="layer"
     id="layer1"
     transform="translate(-74.706642,-25.297048)"><g
       id="g211"
       transform="translate(74.706642,5.297048)"><rect
         style="fill:none;fill-opacity:1;fill-rule:evenodd;stroke:none;stroke-width:3.41002;stroke-linejoin:round;stroke-opacity:1"
         id="rect205-7-8"
         width="20"
         height="20"
         x="0"
         y="20" /><g
         id="g69"
         transform="translate(-97.950183,-160.78506)"><circle
           cx="107.95083"
           cy="190.78505"
           r="6.3499999"
           fill="#fcea2b"
           id="circle1-82"
           style="stroke-width:0.264583" /><path
           fill="#92d3f5"
           d="m 115.82385,193.78484 a 1.1223096,1.1223096 0 0 1 -1.58777,2.7e-4 c -0.78629,-0.78626 -0.79531,-2.37093 -0.79542,-2.38676 0.0612,0.003 1.60095,0.0165 2.38319,0.79878 a 1.1221244,1.1221244 0 0 1 0,1.58771 z"
           id="path3-19"
           style="stroke-width:0.264583" /><path
           fill="#92d3f5"
           d="m 100.07661,193.78503 a 1.1223625,1.1223625 0 0 1 -2.9e-4,-1.58779 c 0.78626,-0.78627 2.37096,-0.79531 2.38676,-0.79542 -0.003,0.0612 -0.0165,1.60097 -0.79878,2.38321 a 1.1221508,1.1221508 0 0 1 -1.58769,0 z"
           id="path4-72"
           style="stroke-width:0.264583" /><path
           fill="none"
           stroke="#000000"
           stroke-linecap="round"
           stroke-linejoin="round"
           stroke-width="0.529167"
           d="m 113.996,190.08142 q -0.003,-0.0222 -0.005,-0.0443 a 6.0862368,6.0862368 0 0 0 -12.0713,-0.067 c -0.004,0.0283 -0.0102,0.0827 -0.0138,0.11113"
           id="path5-960" /><path
           fill="none"
           stroke="#000000"
           stroke-linecap="round"
           stroke-linejoin="round"
           stroke-width="0.529167"
           d="m 102.97221,194.28522 a 6.2260162,6.2260162 0 0 0 4.97861,2.58525 6.1761158,6.1761158 0 0 0 4.96285,-2.56305"
           id="path6-37" /><path
           fill="none"
           stroke="#000000"
           stroke-linejoin="round"
           stroke-width="0.529167"
           d="m 115.82385,193.78484 a 1.1223096,1.1223096 0 0 1 -1.58777,2.7e-4 c -0.78629,-0.78626 -0.79531,-2.37093 -0.79542,-2.38676 0.0612,0.003 1.60095,0.0165 2.38319,0.79878 a 1.1221244,1.1221244 0 0 1 0,1.58771 z"
           id="path11-9" /><path
           fill="none"
           stroke="#000000"
           stroke-linejoin="round"
           stroke-width="0.529167"
           d="m 100.07661,193.78503 a 1.1223625,1.1223625 0 0 1 -2.9e-4,-1.58779 c 0.78626,-0.78627 2.37096,-0.79531 2.38676,-0.79542 -0.003,0.0612 -0.0165,1.60097 -0.79878,2.38321 a 1.1221508,1.1221508 0 0 1 -1.58769,0 z"
           id="path12-73" /></g></g></g></svg>
