<?xml version="1.0" encoding="UTF-8" standalone="no"?>
<!-- Created with Inkscape (http://www.inkscape.org/) -->

<svg
   width="20mm"
   height="20mm"
   viewBox="0 0 20 20"
   version="1.1"
   id="svg1"
   xml:space="preserve"
   xmlns:inkscape="http://www.inkscape.org/namespaces/inkscape"
   xmlns:sodipodi="http://sodipodi.sourceforge.net/DTD/sodipodi-0.dtd"
   xmlns="http://www.w3.org/2000/svg"
   xmlns:svg="http://www.w3.org/2000/svg"><sodipodi:namedview
     id="namedview1"
     pagecolor="#ffffff"
     bordercolor="#000000"
     borderopacity="0.25"
     inkscape:showpageshadow="2"
     inkscape:pageopacity="0.0"
     inkscape:pagecheckerboard="0"
     inkscape:deskcolor="#d1d1d1"
     inkscape:document-units="mm"
     inkscape:lockguides="false" /><defs
     id="defs1" /><g
     inkscape:label="Layer 1"
     inkscape:groupmode="layer"
     id="layer1"
     transform="translate(-20.904531,-101.13753)"><g
       id="g227"
       transform="translate(0.91328413,-27.215867)"><rect
         style="fill:none;fill-opacity:1;fill-rule:evenodd;stroke:none;stroke-width:3.41002;stroke-linejoin:round;stroke-opacity:1"
         id="rect205-7-8-5-1-5-3-9-1-8-5"
         width="20"
         height="20"
         x="19.991247"
         y="128.35339" /><g
         id="g156"
         transform="translate(-93.11944,-51.701033)"><path
           d="m 124.92838,192.62089 c 0,-0.6858 -1.01441,-1.24196 -1.81742,-1.24196 -0.80301,0 -1.81742,0.55589 -1.81742,1.24196 0,0.68606 0.96811,0.24468 1.77112,0.24468 0.80301,0 1.86372,0.44104 1.86372,-0.24468 z"
           id="path1-51"
           style="stroke-width:0.264583" /><path
           fill="#fcea2b"
           d="m 123.1107,183.96901 a 6.0854166,6.0854166 0 1 0 6.08541,6.08542 6.0922958,6.0922958 0 0 0 -6.08541,-6.08542 z"
           id="path2-8"
           style="stroke-width:0.264583" /><path
           fill="#92d3f5"
           d="m 123.1107,187.0939 a 6.0957883,6.0957883 0 0 1 5.88118,4.52297 6.0854166,6.0854166 0 1 0 -11.76234,0 6.0957089,6.0957089 0 0 1 5.88116,-4.52297 z"
           id="path3-89"
           style="stroke-width:0.264583" /><circle
           cx="123.11069"
           cy="190.05443"
           r="6.0854168"
           fill="none"
           stroke="#000000"
           stroke-miterlimit="10"
           stroke-width="0.529167"
           id="circle6" /></g></g></g></svg>
