<?xml version="1.0" encoding="UTF-8" standalone="no"?>
<!-- Created with Inkscape (http://www.inkscape.org/) -->

<svg
   width="20mm"
   height="20mm"
   viewBox="0 0 20 20"
   version="1.1"
   id="svg1"
   xml:space="preserve"
   xmlns:inkscape="http://www.inkscape.org/namespaces/inkscape"
   xmlns:sodipodi="http://sodipodi.sourceforge.net/DTD/sodipodi-0.dtd"
   xmlns="http://www.w3.org/2000/svg"
   xmlns:svg="http://www.w3.org/2000/svg"><sodipodi:namedview
     id="namedview1"
     pagecolor="#ffffff"
     bordercolor="#000000"
     borderopacity="0.25"
     inkscape:showpageshadow="2"
     inkscape:pageopacity="0.0"
     inkscape:pagecheckerboard="0"
     inkscape:deskcolor="#d1d1d1"
     inkscape:document-units="mm"
     inkscape:lockguides="false" /><defs
     id="defs1" /><g
     inkscape:label="Layer 1"
     inkscape:groupmode="layer"
     id="layer1"
     transform="translate(-37.690763,-48.49262)"><g
       id="g219"
       transform="translate(-2.1918819,-11.50738)"><rect
         style="fill:none;fill-opacity:1;fill-rule:evenodd;stroke:none;stroke-width:3.41002;stroke-linejoin:round;stroke-opacity:1"
         id="rect205-7-8-5-1-5-3-9-1-8-03-9"
         width="20"
         height="20"
         x="39.882645"
         y="60" /><g
         id="g157"
         transform="translate(-85.283415,-128.09133)"><circle
           cx="135.67705"
           cy="198.09132"
           r="6.3499999"
           fill="#fcea2b"
           id="circle1-5"
           style="stroke-width:0.264583" /><path
           fill="#92d3f5"
           d="m 128.59833,195.90164 c -0.0671,-0.27543 -0.023,-0.56052 0.12431,-0.80272 0.48477,-0.79735 1.70238,-1.10202 1.75392,-1.11458 0.10723,-0.0262 0.21521,0.0395 0.24135,0.14673 0.0126,0.0516 0.30247,1.27283 -0.18224,2.07045 l 2e-5,1e-4 c -0.30403,0.49954 -0.958,0.65887 -1.45769,0.35497 -0.24218,-0.14682 -0.41251,-0.37952 -0.47967,-0.65495 z"
           id="path1-5"
           style="stroke-width:0.264583" /><path
           fill="none"
           stroke="#000000"
           stroke-miterlimit="10"
           stroke-width="0.529167"
           d="m 128.59833,195.90164 c -0.0671,-0.27543 -0.023,-0.56052 0.12431,-0.80272 0.48477,-0.79735 1.70238,-1.10202 1.75392,-1.11458 0.10723,-0.0262 0.21521,0.0395 0.24135,0.14673 0.0126,0.0516 0.30247,1.27283 -0.18224,2.07045 l 2e-5,1e-4 c -0.30403,0.49954 -0.958,0.65887 -1.45769,0.35497 -0.24218,-0.14682 -0.41251,-0.37952 -0.47967,-0.65495 z"
           id="path7-7" /><path
           fill="none"
           stroke="#000000"
           stroke-linecap="round"
           stroke-miterlimit="10"
           stroke-width="0.529167"
           d="m 131.97201,193.26139 c 1.02624,-0.78841 2.3109,-1.25709 3.70504,-1.25709 3.36177,0 6.08703,2.72526 6.08703,6.08703 0,3.36177 -2.72526,6.08703 -6.08703,6.08703 -3.36177,0 -6.08703,-2.72526 -6.08703,-6.08703 0,-0.10478 0.003,-0.20892 0.008,-0.31239"
           id="path8-8" /></g></g></g></svg>
