<?xml version="1.0" encoding="UTF-8" standalone="no"?>
<!-- Created with Inkscape (http://www.inkscape.org/) -->

<svg
   width="20mm"
   height="20mm"
   viewBox="0 0 20 20"
   version="1.1"
   id="svg1"
   xml:space="preserve"
   xmlns:inkscape="http://www.inkscape.org/namespaces/inkscape"
   xmlns:sodipodi="http://sodipodi.sourceforge.net/DTD/sodipodi-0.dtd"
   xmlns="http://www.w3.org/2000/svg"
   xmlns:svg="http://www.w3.org/2000/svg"><sodipodi:namedview
     id="namedview1"
     pagecolor="#ffffff"
     bordercolor="#000000"
     borderopacity="0.25"
     inkscape:showpageshadow="2"
     inkscape:pageopacity="0.0"
     inkscape:pagecheckerboard="0"
     inkscape:deskcolor="#d1d1d1"
     inkscape:document-units="mm"
     inkscape:lockguides="false" /><defs
     id="defs1" /><g
     inkscape:label="Layer 1"
     inkscape:groupmode="layer"
     id="layer1"
     transform="translate(-60.350667,-82.405389)"><g
       id="g225"
       transform="translate(-47.125461,-24.110701)"><rect
         style="fill:none;fill-opacity:1;fill-rule:evenodd;stroke:none;stroke-width:3.41002;stroke-linejoin:round;stroke-opacity:1"
         id="rect205-7-8-5-1-5-3-9-1-8"
         width="20"
         height="20"
         x="107.47613"
         y="106.51609" /><g
         id="g116"
         transform="translate(3.4069366,-55.455317)"><circle
           cx="114.06919"
           cy="171.97141"
           r="6.0854168"
           fill="#ea5a47"
           id="circle1-65"
           style="stroke-width:0.264583" /><path
           fill="#92d3f5"
           d="m 117.87654,173.19642 c -0.14036,-0.13957 -0.21902,-0.32967 -0.21844,-0.52758 0,-0.6559 0.61992,-1.28349 0.64638,-1.30969 0.0547,-0.0548 0.14351,-0.0548 0.19831,-1.3e-4 l 1.3e-4,1.3e-4 c 0.0265,0.0265 0.64638,0.65405 0.64664,1.30996 -3.4e-4,0.41195 -0.3347,0.74559 -0.74665,0.74533 -0.19744,-1.6e-4 -0.38682,-0.0786 -0.52652,-0.2181 z"
           id="path4-7"
           style="stroke-width:0.264583" /><circle
           cx="114.06919"
           cy="171.97141"
           r="6.0854168"
           fill="none"
           stroke="#000000"
           stroke-miterlimit="10"
           stroke-width="0.529167"
           id="circle5-0" /><path
           fill="none"
           stroke="#000000"
           stroke-linecap="round"
           stroke-linejoin="round"
           stroke-miterlimit="10"
           stroke-width="0.529167"
           d="m 117.87654,173.19642 c -0.14036,-0.13957 -0.21902,-0.32967 -0.21844,-0.52758 0,-0.6559 0.61992,-1.28349 0.64638,-1.30969 0.0547,-0.0548 0.14351,-0.0548 0.19831,-1.3e-4 l 1.3e-4,1.3e-4 c 0.0265,0.0265 0.64638,0.65405 0.64664,1.30996 -3.4e-4,0.41195 -0.3347,0.74559 -0.74665,0.74533 -0.19744,-1.6e-4 -0.38682,-0.0786 -0.52652,-0.2181 z"
           id="path11-7" /></g></g></g></svg>
