<?xml version="1.0" encoding="UTF-8" standalone="no"?>
<!-- Created with Inkscape (http://www.inkscape.org/) -->

<svg
   width="20mm"
   height="20mm"
   viewBox="0 0 20 20"
   version="1.1"
   id="svg1"
   xml:space="preserve"
   xmlns:inkscape="http://www.inkscape.org/namespaces/inkscape"
   xmlns:sodipodi="http://sodipodi.sourceforge.net/DTD/sodipodi-0.dtd"
   xmlns="http://www.w3.org/2000/svg"
   xmlns:svg="http://www.w3.org/2000/svg"><sodipodi:namedview
     id="namedview1"
     pagecolor="#ffffff"
     bordercolor="#000000"
     borderopacity="0.25"
     inkscape:showpageshadow="2"
     inkscape:pageopacity="0.0"
     inkscape:pagecheckerboard="0"
     inkscape:deskcolor="#d1d1d1"
     inkscape:document-units="mm"
     inkscape:lockguides="false" /><defs
     id="defs1" /><g
     inkscape:label="Layer 1"
     inkscape:groupmode="layer"
     id="layer1"
     transform="translate(-2.647602,-34.793357)"><g
       id="g218"
       transform="translate(-17.352398,-25.206643)"><rect
         style="fill:none;fill-opacity:1;fill-rule:evenodd;stroke:none;stroke-width:3.41002;stroke-linejoin:round;stroke-opacity:1"
         id="rect205-7-8-5-1-5-3-9-1-8-03"
         width="20"
         height="20"
         x="20"
         y="60" /><g
         id="g173"
         transform="translate(-77.578568,-124.79317)"><path
           fill="#d22f27"
           d="m 110.98003,189.23691 c 0.79375,-0.52916 1.05833,-1.32291 0.79375,-2.38125 1.85208,0.52917 1.5875,2.64584 0.79375,3.96875"
           id="path1-9"
           style="stroke-width:0.264583" /><path
           fill="#d22f27"
           d="m 104.17711,189.23691 c -0.79375,-0.52916 -1.05833,-1.32291 -0.79375,-2.38125 -1.85208,0.52917 -1.5875,2.64584 -0.79375,3.96875"
           id="path2-4"
           style="stroke-width:0.264583" /><path
           fill="#ea5a47"
           d="m 107.57857,188.44316 c -3.35552,0 -6.08542,2.72989 -6.08542,6.08542 0,3.35553 2.7299,6.08542 6.08542,6.08542 3.3555,0 6.08542,-2.72992 6.08542,-6.08542 0,-3.35555 -2.72992,-6.08542 -6.08542,-6.08542 z"
           id="path3-9"
           style="stroke-width:0.264583" /><circle
           cx="107.57857"
           cy="194.52858"
           r="6.0854168"
           fill="none"
           stroke="#000000"
           stroke-miterlimit="10"
           stroke-width="0.529167"
           id="circle3-5" /><path
           fill="none"
           stroke="#000000"
           stroke-linecap="round"
           stroke-linejoin="round"
           stroke-miterlimit="10"
           stroke-width="0.529167"
           d="m 110.98003,189.23691 c 0.79375,-0.52916 1.05833,-1.32291 0.79375,-2.38125 1.85208,0.52917 1.5875,2.64584 0.79375,3.96875"
           id="path6-0" /><path
           fill="none"
           stroke="#000000"
           stroke-linecap="round"
           stroke-linejoin="round"
           stroke-miterlimit="10"
           stroke-width="0.529167"
           d="m 104.17711,189.23691 c -0.79375,-0.52916 -1.05833,-1.32291 -0.79375,-2.38125 -1.85208,0.52917 -1.5875,2.64584 -0.79375,3.96875"
           id="path7-6" /></g></g></g></svg>
