<?xml version="1.0" encoding="UTF-8" standalone="no"?>
<!-- Created with Inkscape (http://www.inkscape.org/) -->

<svg
   width="20mm"
   height="20mm"
   viewBox="0 0 20 20"
   version="1.1"
   id="svg1"
   xml:space="preserve"
   xmlns:inkscape="http://www.inkscape.org/namespaces/inkscape"
   xmlns:sodipodi="http://sodipodi.sourceforge.net/DTD/sodipodi-0.dtd"
   xmlns="http://www.w3.org/2000/svg"
   xmlns:svg="http://www.w3.org/2000/svg"><sodipodi:namedview
     id="namedview1"
     pagecolor="#ffffff"
     bordercolor="#000000"
     borderopacity="0.25"
     inkscape:showpageshadow="2"
     inkscape:pageopacity="0.0"
     inkscape:pagecheckerboard="0"
     inkscape:deskcolor="#d1d1d1"
     inkscape:document-units="mm"
     inkscape:lockguides="false" /><defs
     id="defs1" /><g
     inkscape:label="Layer 1"
     inkscape:groupmode="layer"
     id="layer1"
     transform="translate(-56.873324,-42.92067)"><g
       id="g220"
       transform="translate(-3.4704797,-17.717712)"><rect
         style="fill:none;fill-opacity:1;fill-rule:evenodd;stroke:none;stroke-width:3.41002;stroke-linejoin:round;stroke-opacity:1"
         id="rect205-7-8-5-1-5-3-9-1-3-9"
         width="20"
         height="20"
         x="60.343803"
         y="60.638382" /><g
         id="g125"
         transform="translate(-40.894201,-122.52119)"><path
           fill="#92d3f5"
           d="m 111.29645,187.18729 c -3.50573,3e-5 -6.35,2.84427 -6.35,6.35 0,3.50573 2.84427,6.35 6.35,6.35 3.50573,0 6.35,-2.84427 6.35,-6.35 -0.004,-3.50573 -2.84427,-6.34735 -6.35,-6.35 z"
           id="path1-53"
           style="stroke-width:0.264583" /><path
           fill="#ffffff"
           d="m 104.85385,193.61402 c -0.20024,0.4617 -0.29845,0.96123 -0.28814,1.46447 0.0435,1.25624 0.33338,2.49184 0.85302,3.63537 0.0724,0.15235 0.18963,0.15219 0.26194,0 0.51964,-1.14485 0.80962,-2.38045 0.85328,-3.63802 v -1.3e-4 c -2.4e-4,-1.14115 -0.44185,-2.06957 -0.98425,-2.06957 -0.2626,-6.6e-4 -0.50959,0.21471 -0.69559,0.60589 z"
           id="path2-39"
           style="stroke-width:0.264583" /><path
           fill="#ffffff"
           d="m 116.23093,193.61402 c -0.20024,0.4617 -0.29845,0.96123 -0.28813,1.46447 0.0435,1.25624 0.33337,2.49184 0.85301,3.63537 0.0724,0.15235 0.18963,0.15219 0.26194,0 0.51964,-1.14485 0.80963,-2.38045 0.85328,-3.63802 v -1.3e-4 c -2.3e-4,-1.14115 -0.44185,-2.06957 -0.98425,-2.06957 -0.2626,-6.6e-4 -0.50958,0.21471 -0.69559,0.60589 z"
           id="path3-2"
           style="stroke-width:0.264583" /><path
           fill="#ffffff"
           d="m 107.42295,197.82883 c -0.14317,0.2341 -0.2163,0.5043 -0.21074,0.77867 0.0403,0.68712 0.2549,1.35255 0.62362,1.93358 0.0249,0.0529 0.0879,0.0756 0.14081,0.0507 0.0223,-0.0105 0.0402,-0.0284 0.0507,-0.0507 0.36883,-0.58129 0.58341,-1.24672 0.62389,-1.93384 -1.8e-4,-0.60696 -0.32305,-1.10067 -0.71967,-1.10067 -0.21367,0.0127 -0.40587,0.13441 -0.50852,0.32226 z"
           id="path4-6"
           style="stroke-width:0.264583" /><path
           fill="#ffffff"
           d="m 114.30212,197.82883 c -0.14317,0.2341 -0.2163,0.5043 -0.21074,0.77867 0.0403,0.68712 0.2549,1.35255 0.62362,1.93358 0.0249,0.0529 0.0879,0.0756 0.14081,0.0507 0.0223,-0.0105 0.0402,-0.0284 0.0507,-0.0507 0.36883,-0.58129 0.58341,-1.24672 0.62389,-1.93384 -1.9e-4,-0.60696 -0.32306,-1.10067 -0.71967,-1.10067 -0.21368,0.0127 -0.40587,0.13441 -0.50853,0.32226 z"
           id="path5-225"
           style="stroke-width:0.264583" /><path
           fill="#ffffff"
           d="m 114.56141,188.45729 c 0.21034,-0.0438 0.40269,-0.23397 0.44053,-0.74057 0.079,-1.05542 -2.38125,-1.05833 -2.38125,-1.05833 0,0 -0.79375,0 -2.38125,-0.79375 -1.5875,-0.79375 -3.175,1.85208 -3.175,1.85208 0,0 -0.79375,1.5875 -1.32292,1.32292 -0.52916,-0.26459 -1.32291,0.52916 -0.79375,1.5875 0,0 0.26459,1.85208 1.5875,0.52916 1.32292,-1.32291 0.79375,-2.11666 2.64584,-1.85208 1.85208,0.26458 2.91041,0 2.91041,-0.52917 0,-0.52916 1.32292,-1.05833 1.85209,-0.52916 0.15732,0.16981 0.38946,0.24924 0.6178,0.21148"
           id="path7-1"
           style="stroke-width:0.264583" /><path
           fill="none"
           stroke="#000000"
           stroke-linecap="round"
           stroke-miterlimit="10"
           stroke-width="0.529167"
           d="m 113.36549,199.26287 c -1.24777,0.44874 -2.6072,0.47969 -3.8735,0.0887"
           id="path8-2" /><path
           fill="none"
           stroke="#000000"
           stroke-linecap="round"
           stroke-miterlimit="10"
           stroke-width="0.529167"
           d="m 115.24139,188.90444 c 1.01018,0.85963 1.71159,2.02591 1.9976,3.32052"
           id="path9-0" /><path
           fill="none"
           stroke="#000000"
           stroke-linecap="round"
           stroke-miterlimit="10"
           stroke-width="0.529167"
           d="m 105.3592,192.19321 c 0.0409,-0.18056 0.0895,-0.35746 0.14526,-0.53023"
           id="path10-8" /><path
           fill="none"
           stroke="#000000"
           stroke-miterlimit="10"
           stroke-width="0.529167"
           d="m 104.85385,193.61402 c -0.20024,0.4617 -0.29845,0.96123 -0.28814,1.46447 0.0435,1.25624 0.33338,2.49184 0.85302,3.63537 0.0724,0.15235 0.18963,0.15219 0.26194,0 0.51964,-1.14485 0.80962,-2.38045 0.85328,-3.63802 v -1.3e-4 c -2.4e-4,-1.14115 -0.44185,-2.06957 -0.98425,-2.06957 -0.2626,-6.6e-4 -0.50959,0.21471 -0.69559,0.60589 z"
           id="path11-09" /><path
           fill="none"
           stroke="#000000"
           stroke-miterlimit="10"
           stroke-width="0.529167"
           d="m 116.23093,193.61402 c -0.20024,0.4617 -0.29845,0.96123 -0.28813,1.46447 0.0435,1.25624 0.33337,2.49184 0.85301,3.63537 0.0724,0.15235 0.18963,0.15219 0.26194,0 0.51964,-1.14485 0.80963,-2.38045 0.85328,-3.63802 v -1.3e-4 c -2.3e-4,-1.14115 -0.44185,-2.06957 -0.98425,-2.06957 -0.2626,-6.6e-4 -0.50958,0.21471 -0.69559,0.60589 z"
           id="path12-9" /><path
           fill="none"
           stroke="#000000"
           stroke-miterlimit="10"
           stroke-width="0.529167"
           d="m 107.42295,197.82883 c -0.14317,0.2341 -0.2163,0.5043 -0.21074,0.77867 0.0403,0.68712 0.2549,1.35255 0.62362,1.93358 0.0249,0.0529 0.0879,0.0756 0.14081,0.0507 0.0223,-0.0105 0.0402,-0.0284 0.0507,-0.0507 0.36883,-0.58129 0.58341,-1.24672 0.62389,-1.93384 -1.8e-4,-0.60696 -0.32305,-1.10067 -0.71967,-1.10067 -0.21367,0.0127 -0.40587,0.13441 -0.50852,0.32226 z"
           id="path13-1" /><path
           fill="none"
           stroke="#000000"
           stroke-miterlimit="10"
           stroke-width="0.529167"
           d="m 114.30212,197.82883 c -0.14317,0.2341 -0.2163,0.5043 -0.21074,0.77867 0.0403,0.68712 0.2549,1.35255 0.62362,1.93358 0.0249,0.0529 0.0879,0.0756 0.14081,0.0507 0.0223,-0.0105 0.0402,-0.0284 0.0507,-0.0507 0.36883,-0.58129 0.58341,-1.24672 0.62389,-1.93384 -1.9e-4,-0.60696 -0.32306,-1.10067 -0.71967,-1.10067 -0.21368,0.0127 -0.40587,0.13441 -0.50853,0.32226 z"
           id="path14-6" /><path
           fill="none"
           stroke="#000000"
           stroke-miterlimit="10"
           stroke-width="0.529167"
           d="m 114.56141,188.45729 c 0.21034,-0.0438 0.40269,-0.23397 0.44053,-0.74057 0.079,-1.05542 -2.38125,-1.05833 -2.38125,-1.05833 0,0 -0.79375,0 -2.38125,-0.79375 -1.5875,-0.79375 -3.175,1.85208 -3.175,1.85208 0,0 -0.79375,1.5875 -1.32292,1.32292 -0.52916,-0.26459 -1.32291,0.52916 -0.79375,1.5875 0,0 0.26459,1.85208 1.5875,0.52916 1.32292,-1.32291 0.79375,-2.11666 2.64584,-1.85208 1.85208,0.26458 2.91041,0 2.91041,-0.52917 0,-0.52916 1.32292,-1.05833 1.85209,-0.52916 0.15732,0.16981 0.38946,0.24924 0.6178,0.21148"
           id="path18" /></g></g></g></svg>
